<svg width="129" height="86" viewBox="0 0 129 86" fill="none" xmlns="http://www.w3.org/2000/svg">
<path d="M126.27 2.99896C125.901 2.62993 124.765 1.75902 123.17 1.67045C121.178 1.55974 111.657 1.22762 111.214 1.22762C110.771 1.22762 99.2572 1.78116 98.593 1.67045C98.2294 1.60986 96.5506 0.927351 94.4967 1.00636C92.7979 1.0717 90.8074 1.83353 89.4041 2.33471C87.6737 2.95271 80.0857 3.83939 72.0228 5.8774C65.6419 7.49025 58.9223 10.0719 54.8629 12.0771C50.8036 14.0331 42.5299 18.0335 41.91 18.3878C41.135 18.8306 17.2218 31.4515 11.1328 41.526C5.04384 51.6005 5.70809 57.8002 5.70809 58.6859C5.70809 59.5716 6.81518 67.6533 6.81518 68.4283C6.81518 69.2033 3.49391 73.2995 3.16178 74.0745C2.82966 74.8494 0.615477 78.8349 1.05831 82.3776C1.50115 85.9203 2.27611 85.1454 2.49753 83.7061C2.71895 82.2669 4.49029 79.3885 5.04384 78.7242C5.59738 78.06 9.02936 74.2959 9.36149 73.4102C9.69362 72.5245 13.0149 72.7459 13.6791 72.7459C14.3434 72.7459 19.436 71.971 20.1003 72.0817C20.7645 72.1924 21.8716 74.0745 21.9823 73.0781C22.093 72.0817 21.5395 70.0889 18.4396 69.5354C15.3398 68.9818 12.9042 68.3176 12.4613 67.8747C12.0185 67.4319 10.0257 66.3248 11.1328 61.4536C12.2399 56.5824 19.7682 52.4862 21.0967 52.0434C22.4252 51.6005 47.667 42.8545 48.8848 42.4117C49.58 42.1589 62.3625 38.7886 73.905 35.6626M126.27 2.99896C128.374 3.44209 128.263 4.77059 127.488 5.87768C123.724 15.0662 113.973 19.6564 111.214 21.5984C108.225 23.7018 96.6004 28.6836 92.1719 30.4551C90.8157 30.9976 84.9753 32.6439 78.0012 34.5488M126.27 2.99896C121.805 3.10977 112.65 3.25465 111.768 3.33138C109.221 3.55279 99.5522 4.72404 97.1539 5.10272C95.0504 5.43485 90.0685 7.09548 88.74 10.306C87.0996 14.2704 83.0939 18.6092 78.6655 21.2662C77.3924 22.0301 76.0085 22.7055 74.5693 23.4804M78.0012 34.5488C77.0787 36.4317 74.37 40.5518 71.8015 41.526C71.4694 41.526 73.6836 37.9833 73.905 35.6626M78.0012 34.5488C76.6694 34.9126 75.2962 35.2859 73.905 35.6626" stroke="url(#paint0_linear_4535_33819)" stroke-width="0.8"/>
<path d="M73.7944 24.0331C74.5915 23.6788 74.8646 23.0736 74.9015 22.8153C75.123 21.4868 71.8017 22.151 71.1374 22.3724C70.4732 22.5939 65.5891 24.564 62.6128 26.6902C61.0629 27.7975 58.9594 29.2366 56.9667 32.3364C55.1874 35.1041 51.0991 37.761 51.0991 37.9824C51.0991 38.2038 51.8741 38.4252 56.1917 36.986C60.5094 35.5468 67.6796 30.3436 69.3661 28.3507C70.5839 26.9117 72.4659 24.6235 73.7944 24.0331Z" stroke="url(#paint1_linear_4535_33819)" stroke-width="0.8"/>
<path d="M87.6328 9.41992C87.4023 9.63269 86.9997 9.88998 86.5257 10.0842M86.5257 10.0842C86.0132 10.2942 85.5994 10.3919 85.0865 10.0842C84.533 9.75205 87.5221 9.11996 86.5257 10.0842Z" stroke="url(#paint2_linear_4535_33819)" stroke-width="0.8"/>
<path d="M124.721 4.77148C124.241 7.4285 119.96 14.4696 107.118 21.8207C94.2757 29.1718 75.2338 33.9987 73.4624 34.4415C71.6911 34.8843 61.9487 36.2571 60.1773 36.4343" stroke="url(#paint3_linear_4535_33819)" stroke-width="0.8"/>
<path d="M121.288 5.21289C120.808 7.86991 116.528 14.911 103.685 22.2621C90.8431 29.6132 76.6723 33.1116 70.8048 34.8829" stroke="url(#paint4_linear_4535_33819)" stroke-width="0.8"/>
<path d="M117.967 5.65625C117.487 8.31327 113.206 15.3544 100.364 22.7054C87.5218 30.0565 74.7903 33.4442 68.9227 35.2156" stroke="url(#paint5_linear_4535_33819)" stroke-width="0.8"/>
<path d="M114.646 6.09961C114.166 8.75663 109.885 15.7977 97.0428 23.1488C84.2005 30.4999 72.9082 33.7326 67.0406 35.5039" stroke="url(#paint6_linear_4535_33819)" stroke-width="0.8"/>
<path d="M111.324 6.54102C110.844 9.19803 106.564 16.2391 93.7215 23.5902C80.8792 30.9413 70.694 34.0411 64.8264 35.8125" stroke="url(#paint7_linear_4535_33819)" stroke-width="0.8"/>
<path d="M108.003 6.98438C107.523 9.64139 103.242 16.6825 90.4002 24.0336C77.5579 31.3846 69.0333 34.2631 63.1658 36.0344" stroke="url(#paint8_linear_4535_33819)" stroke-width="0.8"/>
<path d="M104.461 7.42773C103.981 10.0848 99.7004 17.1258 86.8582 24.4769C74.016 31.828 67.2627 34.4407 61.3951 36.2121" stroke="url(#paint9_linear_4535_33819)" stroke-width="0.8"/>
<path d="M100.918 7.87109C100.438 10.5281 96.1575 17.5692 83.3152 24.9203C70.473 32.2714 66.0446 34.6627 60.177 36.434" stroke="url(#paint10_linear_4535_33819)" stroke-width="0.8"/>
<defs>
<linearGradient id="paint0_linear_4535_33819" x1="93.1107" y1="1.22791" x2="125.036" y2="14.9493" gradientUnits="userSpaceOnUse">
<stop stop-color="#DBFAFF"/>
<stop offset="0.520833" stop-color="#EADDFF"/>
<stop offset="1" stop-color="#FFE7E2"/>
</linearGradient>
<linearGradient id="paint1_linear_4535_33819" x1="68.3702" y1="22.0536" x2="74.4024" y2="24.582" gradientUnits="userSpaceOnUse">
<stop stop-color="#DBFAFF"/>
<stop offset="0.520833" stop-color="#EADDFF"/>
<stop offset="1" stop-color="#FFE7E2"/>
</linearGradient>
<linearGradient id="paint2_linear_4535_33819" x1="86.9143" y1="9.42226" x2="87.3605" y2="9.80754" gradientUnits="userSpaceOnUse">
<stop stop-color="#DBFAFF"/>
<stop offset="0.520833" stop-color="#EADDFF"/>
<stop offset="1" stop-color="#FFE7E2"/>
</linearGradient>
<linearGradient id="paint3_linear_4535_33819" x1="110.639" y1="4.85207" x2="122.943" y2="10.8887" gradientUnits="userSpaceOnUse">
<stop stop-color="#DBFAFF"/>
<stop offset="0.520833" stop-color="#EADDFF"/>
<stop offset="1" stop-color="#FFE7E2"/>
</linearGradient>
<linearGradient id="paint4_linear_4535_33819" x1="107.206" y1="5.29347" x2="119.51" y2="11.3301" gradientUnits="userSpaceOnUse">
<stop stop-color="#DBFAFF"/>
<stop offset="0.520833" stop-color="#EADDFF"/>
<stop offset="1" stop-color="#FFE7E2"/>
</linearGradient>
<linearGradient id="paint5_linear_4535_33819" x1="103.885" y1="5.73683" x2="116.189" y2="11.7734" gradientUnits="userSpaceOnUse">
<stop stop-color="#DBFAFF"/>
<stop offset="0.520833" stop-color="#EADDFF"/>
<stop offset="1" stop-color="#FFE7E2"/>
</linearGradient>
<linearGradient id="paint6_linear_4535_33819" x1="100.564" y1="6.18019" x2="112.868" y2="12.2168" gradientUnits="userSpaceOnUse">
<stop stop-color="#DBFAFF"/>
<stop offset="0.520833" stop-color="#EADDFF"/>
<stop offset="1" stop-color="#FFE7E2"/>
</linearGradient>
<linearGradient id="paint7_linear_4535_33819" x1="97.2426" y1="6.62159" x2="109.546" y2="12.6582" gradientUnits="userSpaceOnUse">
<stop stop-color="#DBFAFF"/>
<stop offset="0.520833" stop-color="#EADDFF"/>
<stop offset="1" stop-color="#FFE7E2"/>
</linearGradient>
<linearGradient id="paint8_linear_4535_33819" x1="93.9213" y1="7.06495" x2="106.225" y2="13.1016" gradientUnits="userSpaceOnUse">
<stop stop-color="#DBFAFF"/>
<stop offset="0.520833" stop-color="#EADDFF"/>
<stop offset="1" stop-color="#FFE7E2"/>
</linearGradient>
<linearGradient id="paint9_linear_4535_33819" x1="90.3793" y1="7.50831" x2="102.683" y2="13.5449" gradientUnits="userSpaceOnUse">
<stop stop-color="#DBFAFF"/>
<stop offset="0.520833" stop-color="#EADDFF"/>
<stop offset="1" stop-color="#FFE7E2"/>
</linearGradient>
<linearGradient id="paint10_linear_4535_33819" x1="86.8363" y1="7.95167" x2="99.1402" y2="13.9883" gradientUnits="userSpaceOnUse">
<stop stop-color="#DBFAFF"/>
<stop offset="0.520833" stop-color="#EADDFF"/>
<stop offset="1" stop-color="#FFE7E2"/>
</linearGradient>
</defs>
</svg>
