<svg width="281" height="82" viewBox="0 0 281 82" fill="none" xmlns="http://www.w3.org/2000/svg">
<path d="M193.812 50.479V31.7186L213.94 20.9541V43.8755L193.812 50.479Z" stroke="url(#paint0_linear_5022_40936)" stroke-width="0.8" stroke-miterlimit="10"/>
<path d="M86.9789 50.479V31.7186L66.8516 20.9541V43.8755L86.9789 50.479Z" stroke="url(#paint1_linear_5022_40936)" stroke-width="0.8" stroke-miterlimit="10"/>
<path d="M251.072 43.2718V20.9541H213.939V43.2718V43.8755L232.506 43.5725L251.072 43.8755V43.2718Z" stroke="url(#paint2_linear_5022_40936)" stroke-width="0.8" stroke-miterlimit="10"/>
<path d="M29.7168 43.2718V20.9541H66.8513V43.2718V43.8755L48.2829 43.5725L29.7168 43.8755V43.2718Z" stroke="url(#paint3_linear_5022_40936)" stroke-width="0.8" stroke-miterlimit="10"/>
<path d="M279.792 51.6927V26.6966L256.799 15.7031V43.8749L279.792 51.6927Z" stroke="url(#paint4_linear_5022_40936)" stroke-width="0.8" stroke-miterlimit="10"/>
<path d="M271.56 48.8966L256.799 23.3107M275.765 50.3191L256.799 17.4474M279.792 51.4501L260.07 17.2646M279.792 45.5937L264.742 19.5036M279.792 39.7327L269.409 21.7356M279.792 33.8786L274.072 23.9676M279.792 28.0153L278.742 26.1973M259.061 44.6431L256.799 40.7319M263.264 46.0725L256.797 34.8685M267.469 47.5042L256.799 29.0145" stroke="url(#paint5_linear_5022_40936)" stroke-width="0.4"/>
<path d="M1 51.6927V26.6966L23.9931 15.7031V43.8749L1 51.6927Z" stroke="url(#paint6_linear_5022_40936)" stroke-width="0.8" stroke-miterlimit="10"/>
<path d="M256.799 43.8752H251.073V20.9539L229.863 9.07915L208.084 20.711V14.4614L230.991 1L256.799 15.7034V43.8752Z" stroke="url(#paint7_linear_5022_40936)" stroke-width="0.8" stroke-miterlimit="10"/>
<path d="M23.9922 43.8752H29.7167V20.9539L50.9265 9.07915L72.7076 20.711V14.4614L49.8047 1L23.9922 15.7034V43.8752Z" stroke="url(#paint8_linear_5022_40936)" stroke-width="0.8" stroke-miterlimit="10"/>
<path d="M44.5451 12.6501L40.7865 6.13217M47.1032 11.2184L43.3331 4.68658M49.6544 9.78895L45.8774 3.23867M53.3806 10.3857L48.4216 1.78613M58.2655 12.9924L52.1339 2.37131M63.1459 15.6037L57.2501 5.37815M68.0308 18.2174L62.3572 8.37805M72.7076 20.4609L67.4734 11.3826M72.7076 14.5999L72.5827 14.3894M25.4817 43.875L23.9922 41.296M28.8586 43.875L23.9922 35.4396M29.7167 39.5104L23.9922 29.5786M29.7167 33.6471L23.9922 23.7222M29.7167 27.793L23.9922 17.8612M29.7167 21.932L25.5928 14.7896M31.8424 19.7578L28.137 13.3393M34.4005 18.3353L30.6812 11.8891M36.9517 16.9036L33.2255 10.4458M39.5098 15.4719L35.7697 8.9933M42.061 14.0425L38.3163 7.54539" stroke="url(#paint9_linear_5022_40936)" stroke-width="0.4"/>
<path d="M213.94 20.9538L193.812 31.7183L208.083 20.7109L229.862 9.0791L213.94 20.9538Z" stroke="url(#paint10_linear_5022_40936)" stroke-width="0.8" stroke-miterlimit="10"/>
<path d="M66.8524 20.9538L86.9797 31.7183L72.7088 20.7109L50.9277 9.0791L66.8524 20.9538Z" stroke="url(#paint11_linear_5022_40936)" stroke-width="0.8" stroke-miterlimit="10"/>
<path d="M232.506 43.8613H213.75V63.112H232.506V43.8613Z" stroke="url(#paint12_linear_5022_40936)" stroke-width="0.8" stroke-miterlimit="10"/>
<path d="M67.0389 43.8613H48.2832V63.112H67.0389V43.8613Z" stroke="url(#paint13_linear_5022_40936)" stroke-width="0.8" stroke-miterlimit="10"/>
<path d="M251.262 43.8613H232.506V63.112H251.262V43.8613Z" stroke="url(#paint14_linear_5022_40936)" stroke-width="0.8" stroke-miterlimit="10"/>
<path d="M48.2831 43.8613H29.5273V63.112H48.2831V43.8613Z" stroke="url(#paint15_linear_5022_40936)" stroke-width="0.8" stroke-miterlimit="10"/>
<path d="M264.524 46.5004L256.799 43.8752L251.262 43.8613V63.112L264.524 65.2793V46.5004Z" stroke="url(#paint16_linear_5022_40936)" stroke-width="0.8" stroke-miterlimit="10"/>
<path d="M16.2676 46.5004L23.9928 43.8752L29.5277 43.8613V63.112L16.2676 65.2793V46.5004Z" stroke="url(#paint17_linear_5022_40936)" stroke-width="0.8" stroke-miterlimit="10"/>
<path d="M262.352 49.5398L254.088 47.8906V59.8972L262.352 61.2479V49.5398Z" stroke="url(#paint18_linear_5022_40936)" stroke-width="0.4"/>
<path d="M18.4375 49.5398L26.7017 47.8906V59.8972L18.4375 61.2479V49.5398Z" fill="url(#paint19_linear_5022_40936)"/>
<path d="M200.494 65.2788V59.0361H209.801H210.484V58.9251V55.7679V49.1968L203.76 51.4034V55.7679H200.494V48.2855L213.75 43.9395V63.1115L200.494 65.2788Z" stroke="url(#paint20_linear_5022_40936)" stroke-width="0.8" stroke-miterlimit="10"/>
<path d="M80.2962 65.2788V59.0361H70.3343V55.7679H80.2962V48.2855L67.043 43.9395V63.1115L80.2962 65.2788Z" stroke="url(#paint21_linear_5022_40936)" stroke-width="0.8" stroke-miterlimit="10"/>
<path d="M203.76 55.7684V51.4038L210.484 49.1973V55.7684H203.76Z" fill="url(#paint22_linear_5022_40936)"/>
<path d="M77.037 55.7684V51.4038L70.3086 49.1973C70.3086 50.6405 70.334 64.8398 70.334 55.7684H77.037Z" fill="url(#paint23_linear_5022_40936)"/>
<path d="M264.523 46.502L270.308 48.4703V67.1913L264.523 65.2808V46.502Z" stroke="url(#paint24_linear_5022_40936)" stroke-width="0.8" stroke-miterlimit="10"/>
<path d="M16.2691 46.502L10.4844 48.4703V67.1913L16.2691 65.2808V46.502Z" stroke="url(#paint25_linear_5022_40936)" stroke-width="0.8" stroke-miterlimit="10"/>
<path d="M194.705 50.1828V55.7685H200.497V48.2861L194.705 50.1828ZM194.705 59.0367V67.1899L200.497 65.2794V59.0367H194.705Z" stroke="url(#paint26_linear_5022_40936)" stroke-width="0.8" stroke-miterlimit="10"/>
<path d="M86.0866 50.1828V55.7685H80.2949V48.2861L86.0866 50.1828ZM86.0866 59.0367V67.1899L80.2949 65.2794V59.0367H86.0866Z" stroke="url(#paint27_linear_5022_40936)" stroke-width="0.8" stroke-miterlimit="10"/>
<path d="M265 65H263V81H265V65Z" fill="url(#paint28_linear_5022_40936)"/>
<path d="M18 65H16V82H18V65Z" fill="url(#paint29_linear_5022_40936)"/>
<path d="M203 65H201V81H203V65Z" fill="url(#paint30_linear_5022_40936)"/>
<path d="M80 65H78V82H80V65Z" fill="url(#paint31_linear_5022_40936)"/>
<path d="M270 67.6173V81H269V67L270 67.6173Z" fill="url(#paint32_linear_5022_40936)"/>
<path d="M10 67.6614V82H12V67L10 67.6614Z" fill="url(#paint33_linear_5022_40936)"/>
<path d="M195 67.4629V81H196V67L195 67.4629Z" fill="url(#paint34_linear_5022_40936)"/>
<path d="M86 67.4959V82H85V67L86 67.4959Z" fill="url(#paint35_linear_5022_40936)"/>
<path d="M252 63H250V81H252V63Z" fill="url(#paint36_linear_5022_40936)"/>
<path d="M31 63H29V82H31V63Z" fill="url(#paint37_linear_5022_40936)"/>
<path d="M216 63H214V81H216V63Z" fill="url(#paint38_linear_5022_40936)"/>
<path d="M67 63H65V82H67V63Z" fill="url(#paint39_linear_5022_40936)"/>
<path d="M234 63H232V81H234V63Z" fill="url(#paint40_linear_5022_40936)"/>
<path d="M49 63H47V82H49V63Z" fill="url(#paint41_linear_5022_40936)"/>
<path d="M233.746 63.1123L249.951 79.6939" stroke="url(#paint42_linear_5022_40936)" stroke-width="0.4"/>
<path d="M47.0467 63.1123L30.8398 79.6939" stroke="url(#paint43_linear_5022_40936)" stroke-width="0.4"/>
<path d="M215.709 63.1123L231.916 79.6939" stroke="url(#paint44_linear_5022_40936)" stroke-width="0.4"/>
<path d="M65.0796 63.1123L48.875 79.6939" stroke="url(#paint45_linear_5022_40936)" stroke-width="0.4"/>
<path d="M251.846 63.3223L262.626 79.6934" stroke="url(#paint46_linear_5022_40936)" stroke-width="0.4"/>
<path d="M29 63L17 80" stroke="url(#paint47_linear_5022_40936)" stroke-width="0.4"/>
<path d="M213.441 63.3223L202.66 79.6934" stroke="url(#paint48_linear_5022_40936)" stroke-width="0.4"/>
<path d="M67.3496 63.3223L78.1326 79.6934" stroke="url(#paint49_linear_5022_40936)" stroke-width="0.4"/>
<path d="M196.107 67.2753L201.027 78.2826M201.027 65.8574L196.107 79.6935L201.027 65.8574Z" stroke="url(#paint50_linear_5022_40936)" stroke-width="0.4"/>
<path d="M84.9972 67.4346L79 78.5724M79.0028 66L85 80L79.0028 66Z" stroke="url(#paint51_linear_5022_40936)" stroke-width="0.4"/>
<path d="M268.905 67.2753L264.57 78.2826M264.57 65.8574L268.905 79.6935L264.57 65.8574Z" stroke="url(#paint52_linear_5022_40936)" stroke-width="0.4"/>
<path d="M11.8867 67.2753L16.2212 78.2826M16.2212 65.8574L11.8867 79.6935L16.2212 65.8574Z" stroke="url(#paint53_linear_5022_40936)" stroke-width="0.4"/>
<path d="M249.951 63.1123L233.746 79.6939" stroke="url(#paint54_linear_5022_40936)" stroke-width="0.4"/>
<path d="M30.8398 63.1123L47.0467 79.6939" stroke="url(#paint55_linear_5022_40936)" stroke-width="0.4"/>
<path d="M231.916 63.1123L215.709 79.6939" stroke="url(#paint56_linear_5022_40936)" stroke-width="0.4"/>
<path d="M48.875 63.1123L65.0796 79.6939" stroke="url(#paint57_linear_5022_40936)" stroke-width="0.4"/>
<path d="M262.626 64.998L251.846 78.02" stroke="url(#paint58_linear_5022_40936)" stroke-width="0.4"/>
<path d="M18.1621 64.998L28.9451 78.02" stroke="url(#paint59_linear_5022_40936)" stroke-width="0.4"/>
<path d="M202.66 64.998L213.441 78.02" stroke="url(#paint60_linear_5022_40936)" stroke-width="0.4"/>
<path d="M78 65L67 80" stroke="url(#paint61_linear_5022_40936)" stroke-width="0.4"/>
<path d="M256.798 15.7034L230.99 1L260.615 12.9857L279.791 26.6969L256.798 15.7034Z" stroke="url(#paint62_linear_5022_40936)" stroke-width="0.8" stroke-miterlimit="10"/>
<path d="M23.9931 15.7034L49.8056 1L20.1767 12.9857L1 26.6969L23.9931 15.7034Z" stroke="url(#paint63_linear_5022_40936)" stroke-width="0.8" stroke-miterlimit="10"/>
<path d="M247.517 24.9727H234.361V37.044H247.517V24.9727Z" fill="url(#paint64_linear_5022_40936)"/>
<path d="M46.4345 24.9727H33.2715V37.044H46.4345V24.9727Z" stroke="url(#paint65_linear_5022_40936)" stroke-width="0.4"/>
<path d="M230.658 24.9727H217.502V37.044H230.658V24.9727Z" stroke="url(#paint66_linear_5022_40936)" stroke-width="0.4"/>
<path d="M63.2978 24.9727H50.1348V37.044H63.2978V24.9727Z" stroke="url(#paint67_linear_5022_40936)" stroke-width="0.4"/>
<path d="M229.312 47.4512H216.949V59.5225H229.312V47.4512Z" stroke="url(#paint68_linear_5022_40936)" stroke-width="0.4"/>
<path d="M63.8412 47.4512H51.4785V59.5225H63.8412V47.4512Z" fill="url(#paint69_linear_5022_40936)"/>
<path d="M211.599 26.5723L204.535 30.3863V41.5787L211.599 38.6436V26.5723ZM201.152 32.2043L195.721 35.1325V45.2332L201.152 42.9827V32.2043Z" stroke="url(#paint70_linear_5022_40936)" stroke-width="0.4"/>
<path d="M69.1934 26.5723L76.2641 30.3863V41.5787L69.1934 38.6436V26.5723ZM79.641 32.2043L85.0787 35.1325V45.2332L79.641 42.9827V32.2043Z" stroke="url(#paint71_linear_5022_40936)" stroke-width="0.4"/>
<path d="M102.723 33.2946L112.173 26.7305C131.075 26.7305 149.974 26.7305 168.869 26.7305L178.319 33.2946V80.2846H102.723C102.723 62.4309 102.723 51.1483 102.723 33.2946Z" stroke="url(#paint72_linear_5022_40936)" stroke-width="0.8" stroke-miterlimit="10"/>
<path d="M168.871 26.7305L178.322 33.2946V80.2846H168.871V26.7305Z" stroke="url(#paint73_linear_5022_40936)" stroke-width="0.8" stroke-miterlimit="10"/>
<path d="M174.334 80.2836L168.871 70.8121M177.718 80.2836L168.871 64.958M178.322 75.4796L168.871 59.097M178.322 69.6186L168.871 53.2429M178.322 63.7622L168.871 47.3796M178.322 57.9012L168.871 41.5255M178.322 52.0471L168.871 35.6644M178.322 46.1907L168.871 29.8081M178.322 40.3297L171.554 28.5938M178.322 34.4756L177.193 32.5073M171.048 80.2836L168.871 76.5158" stroke="url(#paint74_linear_5022_40936)" stroke-width="0.4"/>
<path d="M102.723 33.2946L112.173 26.7305V80.2846H102.723C102.723 62.4309 102.723 51.1483 102.723 33.2946Z" stroke="url(#paint75_linear_5022_40936)" stroke-width="0.8" stroke-miterlimit="10"/>
<path d="M210.484 55.7686H178.322V59.0368H210.484V55.7686Z" stroke="url(#paint76_linear_5022_40936)" stroke-width="0.4"/>
<path d="M102.496 55.7686H70.334V59.0368H102.496V55.7686Z" stroke="url(#paint77_linear_5022_40936)" stroke-width="0.8" stroke-miterlimit="10"/>
<defs>
<linearGradient id="paint0_linear_5022_40936" x1="213.94" y1="20.9541" x2="191.191" y2="23.1349" gradientUnits="userSpaceOnUse">
<stop stop-color="#DBF8FF"/>
<stop offset="0.53125" stop-color="#DDE4FF"/>
<stop offset="1" stop-color="#FEE2FF"/>
</linearGradient>
<linearGradient id="paint1_linear_5022_40936" x1="86.9789" y1="20.9541" x2="64.2302" y2="23.1349" gradientUnits="userSpaceOnUse">
<stop stop-color="#DBF8FF"/>
<stop offset="0.53125" stop-color="#DDE4FF"/>
<stop offset="1" stop-color="#FEE2FF"/>
</linearGradient>
<linearGradient id="paint2_linear_5022_40936" x1="251.072" y1="20.9541" x2="210.807" y2="30.1267" gradientUnits="userSpaceOnUse">
<stop stop-color="#DBF8FF"/>
<stop offset="0.53125" stop-color="#DDE4FF"/>
<stop offset="1" stop-color="#FEE2FF"/>
</linearGradient>
<linearGradient id="paint3_linear_5022_40936" x1="66.8513" y1="20.9541" x2="26.5847" y2="30.1278" gradientUnits="userSpaceOnUse">
<stop stop-color="#DBF8FF"/>
<stop offset="0.53125" stop-color="#DDE4FF"/>
<stop offset="1" stop-color="#FEE2FF"/>
</linearGradient>
<linearGradient id="paint4_linear_5022_40936" x1="279.792" y1="15.7031" x2="253.775" y2="18.0405" gradientUnits="userSpaceOnUse">
<stop stop-color="#DBF8FF"/>
<stop offset="0.53125" stop-color="#DDE4FF"/>
<stop offset="1" stop-color="#FEE2FF"/>
</linearGradient>
<linearGradient id="paint5_linear_5022_40936" x1="279.792" y1="16.1494" x2="253.781" y2="18.5322" gradientUnits="userSpaceOnUse">
<stop stop-color="#FFE7E2"/>
<stop offset="0.520833" stop-color="#EADDFF"/>
<stop offset="1" stop-color="#DBFAFF"/>
</linearGradient>
<linearGradient id="paint6_linear_5022_40936" x1="23.9931" y1="15.7031" x2="-2.0234" y2="18.0405" gradientUnits="userSpaceOnUse">
<stop stop-color="#DBF8FF"/>
<stop offset="0.53125" stop-color="#DDE4FF"/>
<stop offset="1" stop-color="#FEE2FF"/>
</linearGradient>
<linearGradient id="paint7_linear_5022_40936" x1="256.799" y1="1" x2="202.617" y2="9.65733" gradientUnits="userSpaceOnUse">
<stop stop-color="#DBF8FF"/>
<stop offset="0.53125" stop-color="#DDE4FF"/>
<stop offset="1" stop-color="#FEE2FF"/>
</linearGradient>
<linearGradient id="paint8_linear_5022_40936" x1="72.7076" y1="1" x2="18.5248" y2="9.65733" gradientUnits="userSpaceOnUse">
<stop stop-color="#DBF8FF"/>
<stop offset="0.53125" stop-color="#DDE4FF"/>
<stop offset="1" stop-color="#FEE2FF"/>
</linearGradient>
<linearGradient id="paint9_linear_5022_40936" x1="72.7076" y1="-0.333125" x2="18.4447" y2="8.07589" gradientUnits="userSpaceOnUse">
<stop stop-color="#FFE7E2"/>
<stop offset="0.520833" stop-color="#EADDFF"/>
<stop offset="1" stop-color="#DBFAFF"/>
</linearGradient>
<linearGradient id="paint10_linear_5022_40936" x1="229.862" y1="9.0791" x2="190.706" y2="17.8471" gradientUnits="userSpaceOnUse">
<stop stop-color="#DBF8FF"/>
<stop offset="0.53125" stop-color="#DDE4FF"/>
<stop offset="1" stop-color="#FEE2FF"/>
</linearGradient>
<linearGradient id="paint11_linear_5022_40936" x1="86.9797" y1="9.0791" x2="47.8217" y2="17.8482" gradientUnits="userSpaceOnUse">
<stop stop-color="#DBF8FF"/>
<stop offset="0.53125" stop-color="#DDE4FF"/>
<stop offset="1" stop-color="#FEE2FF"/>
</linearGradient>
<linearGradient id="paint12_linear_5022_40936" x1="232.506" y1="43.8613" x2="211.507" y2="46.7384" gradientUnits="userSpaceOnUse">
<stop stop-color="#DBF8FF"/>
<stop offset="0.53125" stop-color="#DDE4FF"/>
<stop offset="1" stop-color="#FEE2FF"/>
</linearGradient>
<linearGradient id="paint13_linear_5022_40936" x1="67.0389" y1="43.8613" x2="46.0399" y2="46.7384" gradientUnits="userSpaceOnUse">
<stop stop-color="#DBF8FF"/>
<stop offset="0.53125" stop-color="#DDE4FF"/>
<stop offset="1" stop-color="#FEE2FF"/>
</linearGradient>
<linearGradient id="paint14_linear_5022_40936" x1="251.262" y1="43.8613" x2="230.263" y2="46.7384" gradientUnits="userSpaceOnUse">
<stop stop-color="#DBF8FF"/>
<stop offset="0.53125" stop-color="#DDE4FF"/>
<stop offset="1" stop-color="#FEE2FF"/>
</linearGradient>
<linearGradient id="paint15_linear_5022_40936" x1="48.2831" y1="43.8613" x2="27.284" y2="46.7384" gradientUnits="userSpaceOnUse">
<stop stop-color="#DBF8FF"/>
<stop offset="0.53125" stop-color="#DDE4FF"/>
<stop offset="1" stop-color="#FEE2FF"/>
</linearGradient>
<linearGradient id="paint16_linear_5022_40936" x1="264.524" y1="43.8613" x2="249.511" y2="45.1687" gradientUnits="userSpaceOnUse">
<stop stop-color="#DBF8FF"/>
<stop offset="0.53125" stop-color="#DDE4FF"/>
<stop offset="1" stop-color="#FEE2FF"/>
</linearGradient>
<linearGradient id="paint17_linear_5022_40936" x1="29.5277" y1="43.8613" x2="14.5167" y2="45.1682" gradientUnits="userSpaceOnUse">
<stop stop-color="#DBF8FF"/>
<stop offset="0.53125" stop-color="#DDE4FF"/>
<stop offset="1" stop-color="#FEE2FF"/>
</linearGradient>
<linearGradient id="paint18_linear_5022_40936" x1="262.352" y1="47.4549" x2="252.992" y2="48.2435" gradientUnits="userSpaceOnUse">
<stop stop-color="#FFE7E2"/>
<stop offset="0.520833" stop-color="#EADDFF"/>
<stop offset="1" stop-color="#DBFAFF"/>
</linearGradient>
<linearGradient id="paint19_linear_5022_40936" x1="26.7011" y1="46.9999" x2="17.3348" y2="47.7641" gradientUnits="userSpaceOnUse">
<stop stop-color="#FFE7E2"/>
<stop offset="0.520833" stop-color="#EADDFF"/>
<stop offset="1" stop-color="#DBFAFF"/>
</linearGradient>
<linearGradient id="paint20_linear_5022_40936" x1="213.75" y1="43.9395" x2="198.745" y2="45.2502" gradientUnits="userSpaceOnUse">
<stop stop-color="#DBF8FF"/>
<stop offset="0.53125" stop-color="#DDE4FF"/>
<stop offset="1" stop-color="#FEE2FF"/>
</linearGradient>
<linearGradient id="paint21_linear_5022_40936" x1="80.2962" y1="43.9395" x2="65.2937" y2="45.2497" gradientUnits="userSpaceOnUse">
<stop stop-color="#DBF8FF"/>
<stop offset="0.53125" stop-color="#DDE4FF"/>
<stop offset="1" stop-color="#FEE2FF"/>
</linearGradient>
<linearGradient id="paint22_linear_5022_40936" x1="210.484" y1="48.9829" x2="202.96" y2="50.0312" gradientUnits="userSpaceOnUse">
<stop stop-color="#FFE7E2"/>
<stop offset="0.520833" stop-color="#EADDFF"/>
<stop offset="1" stop-color="#DBFAFF"/>
</linearGradient>
<linearGradient id="paint23_linear_5022_40936" x1="77.0365" y1="48.5585" x2="69.4254" y2="49.2634" gradientUnits="userSpaceOnUse">
<stop stop-color="#FFE7E2"/>
<stop offset="0.520833" stop-color="#EADDFF"/>
<stop offset="1" stop-color="#DBFAFF"/>
</linearGradient>
<linearGradient id="paint24_linear_5022_40936" x1="270.308" y1="46.502" x2="263.72" y2="46.761" gradientUnits="userSpaceOnUse">
<stop stop-color="#DBF8FF"/>
<stop offset="0.53125" stop-color="#DDE4FF"/>
<stop offset="1" stop-color="#FEE2FF"/>
</linearGradient>
<linearGradient id="paint25_linear_5022_40936" x1="16.2691" y1="46.502" x2="9.68109" y2="46.761" gradientUnits="userSpaceOnUse">
<stop stop-color="#DBF8FF"/>
<stop offset="0.53125" stop-color="#DDE4FF"/>
<stop offset="1" stop-color="#FEE2FF"/>
</linearGradient>
<linearGradient id="paint26_linear_5022_40936" x1="200.497" y1="48.2861" x2="193.903" y2="48.5702" gradientUnits="userSpaceOnUse">
<stop stop-color="#DBF8FF"/>
<stop offset="0.53125" stop-color="#DDE4FF"/>
<stop offset="1" stop-color="#FEE2FF"/>
</linearGradient>
<linearGradient id="paint27_linear_5022_40936" x1="86.0866" y1="48.2861" x2="79.4927" y2="48.5702" gradientUnits="userSpaceOnUse">
<stop stop-color="#DBF8FF"/>
<stop offset="0.53125" stop-color="#DDE4FF"/>
<stop offset="1" stop-color="#FEE2FF"/>
</linearGradient>
<linearGradient id="paint28_linear_5022_40936" x1="265" y1="65" x2="262.719" y2="65.0401" gradientUnits="userSpaceOnUse">
<stop stop-color="#DBF8FF"/>
<stop offset="0.53125" stop-color="#DDE4FF"/>
<stop offset="1" stop-color="#FEE2FF"/>
</linearGradient>
<linearGradient id="paint29_linear_5022_40936" x1="18" y1="65" x2="15.7194" y2="65.0377" gradientUnits="userSpaceOnUse">
<stop stop-color="#DBF8FF"/>
<stop offset="0.53125" stop-color="#DDE4FF"/>
<stop offset="1" stop-color="#FEE2FF"/>
</linearGradient>
<linearGradient id="paint30_linear_5022_40936" x1="203" y1="65" x2="200.719" y2="65.0401" gradientUnits="userSpaceOnUse">
<stop stop-color="#DBF8FF"/>
<stop offset="0.53125" stop-color="#DDE4FF"/>
<stop offset="1" stop-color="#FEE2FF"/>
</linearGradient>
<linearGradient id="paint31_linear_5022_40936" x1="80" y1="65" x2="77.7194" y2="65.0377" gradientUnits="userSpaceOnUse">
<stop stop-color="#DBF8FF"/>
<stop offset="0.53125" stop-color="#DDE4FF"/>
<stop offset="1" stop-color="#FEE2FF"/>
</linearGradient>
<linearGradient id="paint32_linear_5022_40936" x1="270" y1="67" x2="268.859" y2="67.0115" gradientUnits="userSpaceOnUse">
<stop stop-color="#DBF8FF"/>
<stop offset="0.53125" stop-color="#DDE4FF"/>
<stop offset="1" stop-color="#FEE2FF"/>
</linearGradient>
<linearGradient id="paint33_linear_5022_40936" x1="12" y1="67" x2="9.71955" y2="67.0428" gradientUnits="userSpaceOnUse">
<stop stop-color="#DBF8FF"/>
<stop offset="0.53125" stop-color="#DDE4FF"/>
<stop offset="1" stop-color="#FEE2FF"/>
</linearGradient>
<linearGradient id="paint34_linear_5022_40936" x1="196" y1="67" x2="194.859" y2="67.0115" gradientUnits="userSpaceOnUse">
<stop stop-color="#DBF8FF"/>
<stop offset="0.53125" stop-color="#DDE4FF"/>
<stop offset="1" stop-color="#FEE2FF"/>
</linearGradient>
<linearGradient id="paint35_linear_5022_40936" x1="86" y1="67" x2="84.8595" y2="67.0107" gradientUnits="userSpaceOnUse">
<stop stop-color="#DBF8FF"/>
<stop offset="0.53125" stop-color="#DDE4FF"/>
<stop offset="1" stop-color="#FEE2FF"/>
</linearGradient>
<linearGradient id="paint36_linear_5022_40936" x1="252" y1="63" x2="249.719" y2="63.0356" gradientUnits="userSpaceOnUse">
<stop stop-color="#DBF8FF"/>
<stop offset="0.53125" stop-color="#DDE4FF"/>
<stop offset="1" stop-color="#FEE2FF"/>
</linearGradient>
<linearGradient id="paint37_linear_5022_40936" x1="31" y1="63" x2="28.7192" y2="63.0338" gradientUnits="userSpaceOnUse">
<stop stop-color="#DBF8FF"/>
<stop offset="0.53125" stop-color="#DDE4FF"/>
<stop offset="1" stop-color="#FEE2FF"/>
</linearGradient>
<linearGradient id="paint38_linear_5022_40936" x1="216" y1="63" x2="213.719" y2="63.0356" gradientUnits="userSpaceOnUse">
<stop stop-color="#DBF8FF"/>
<stop offset="0.53125" stop-color="#DDE4FF"/>
<stop offset="1" stop-color="#FEE2FF"/>
</linearGradient>
<linearGradient id="paint39_linear_5022_40936" x1="67" y1="63" x2="64.7192" y2="63.0338" gradientUnits="userSpaceOnUse">
<stop stop-color="#DBF8FF"/>
<stop offset="0.53125" stop-color="#DDE4FF"/>
<stop offset="1" stop-color="#FEE2FF"/>
</linearGradient>
<linearGradient id="paint40_linear_5022_40936" x1="234" y1="63" x2="231.719" y2="63.0356" gradientUnits="userSpaceOnUse">
<stop stop-color="#DBF8FF"/>
<stop offset="0.53125" stop-color="#DDE4FF"/>
<stop offset="1" stop-color="#FEE2FF"/>
</linearGradient>
<linearGradient id="paint41_linear_5022_40936" x1="49" y1="63" x2="46.7192" y2="63.0338" gradientUnits="userSpaceOnUse">
<stop stop-color="#DBF8FF"/>
<stop offset="0.53125" stop-color="#DDE4FF"/>
<stop offset="1" stop-color="#FEE2FF"/>
</linearGradient>
<linearGradient id="paint42_linear_5022_40936" x1="249.951" y1="62.5714" x2="231.789" y2="64.9885" gradientUnits="userSpaceOnUse">
<stop stop-color="#FFE7E2"/>
<stop offset="0.520833" stop-color="#EADDFF"/>
<stop offset="1" stop-color="#DBFAFF"/>
</linearGradient>
<linearGradient id="paint43_linear_5022_40936" x1="47.0457" y1="62.0066" x2="28.8573" y2="64.3508" gradientUnits="userSpaceOnUse">
<stop stop-color="#FFE7E2"/>
<stop offset="0.520833" stop-color="#EADDFF"/>
<stop offset="1" stop-color="#DBFAFF"/>
</linearGradient>
<linearGradient id="paint44_linear_5022_40936" x1="231.916" y1="62.5714" x2="213.752" y2="64.9891" gradientUnits="userSpaceOnUse">
<stop stop-color="#FFE7E2"/>
<stop offset="0.520833" stop-color="#EADDFF"/>
<stop offset="1" stop-color="#DBFAFF"/>
</linearGradient>
<linearGradient id="paint45_linear_5022_40936" x1="65.0785" y1="62.0066" x2="46.8927" y2="64.3502" gradientUnits="userSpaceOnUse">
<stop stop-color="#FFE7E2"/>
<stop offset="0.520833" stop-color="#EADDFF"/>
<stop offset="1" stop-color="#DBFAFF"/>
</linearGradient>
<linearGradient id="paint46_linear_5022_40936" x1="262.626" y1="62.7882" x2="250.428" y2="63.8822" gradientUnits="userSpaceOnUse">
<stop stop-color="#FFE7E2"/>
<stop offset="0.520833" stop-color="#EADDFF"/>
<stop offset="1" stop-color="#DBFAFF"/>
</linearGradient>
<linearGradient id="paint47_linear_5022_40936" x1="28.9992" y1="61.8663" x2="15.426" y2="63.1298" gradientUnits="userSpaceOnUse">
<stop stop-color="#FFE7E2"/>
<stop offset="0.520833" stop-color="#EADDFF"/>
<stop offset="1" stop-color="#DBFAFF"/>
</linearGradient>
<linearGradient id="paint48_linear_5022_40936" x1="213.441" y1="62.7882" x2="201.242" y2="63.8822" gradientUnits="userSpaceOnUse">
<stop stop-color="#FFE7E2"/>
<stop offset="0.520833" stop-color="#EADDFF"/>
<stop offset="1" stop-color="#DBFAFF"/>
</linearGradient>
<linearGradient id="paint49_linear_5022_40936" x1="78.1319" y1="62.2306" x2="65.9217" y2="63.2911" gradientUnits="userSpaceOnUse">
<stop stop-color="#FFE7E2"/>
<stop offset="0.520833" stop-color="#EADDFF"/>
<stop offset="1" stop-color="#DBFAFF"/>
</linearGradient>
<linearGradient id="paint50_linear_5022_40936" x1="201.027" y1="65.406" x2="195.429" y2="65.6771" gradientUnits="userSpaceOnUse">
<stop stop-color="#FFE7E2"/>
<stop offset="0.520833" stop-color="#EADDFF"/>
<stop offset="1" stop-color="#DBFAFF"/>
</linearGradient>
<linearGradient id="paint51_linear_5022_40936" x1="84.9996" y1="65.0664" x2="78.176" y2="65.452" gradientUnits="userSpaceOnUse">
<stop stop-color="#FFE7E2"/>
<stop offset="0.520833" stop-color="#EADDFF"/>
<stop offset="1" stop-color="#DBFAFF"/>
</linearGradient>
<linearGradient id="paint52_linear_5022_40936" x1="268.905" y1="65.406" x2="263.97" y2="65.6166" gradientUnits="userSpaceOnUse">
<stop stop-color="#FFE7E2"/>
<stop offset="0.520833" stop-color="#EADDFF"/>
<stop offset="1" stop-color="#DBFAFF"/>
</linearGradient>
<linearGradient id="paint53_linear_5022_40936" x1="16.2209" y1="64.9348" x2="11.2841" y2="65.1387" gradientUnits="userSpaceOnUse">
<stop stop-color="#FFE7E2"/>
<stop offset="0.520833" stop-color="#EADDFF"/>
<stop offset="1" stop-color="#DBFAFF"/>
</linearGradient>
<linearGradient id="paint54_linear_5022_40936" x1="249.951" y1="62.5714" x2="231.789" y2="64.9885" gradientUnits="userSpaceOnUse">
<stop stop-color="#FFE7E2"/>
<stop offset="0.520833" stop-color="#EADDFF"/>
<stop offset="1" stop-color="#DBFAFF"/>
</linearGradient>
<linearGradient id="paint55_linear_5022_40936" x1="47.0457" y1="62.0066" x2="28.8573" y2="64.3508" gradientUnits="userSpaceOnUse">
<stop stop-color="#FFE7E2"/>
<stop offset="0.520833" stop-color="#EADDFF"/>
<stop offset="1" stop-color="#DBFAFF"/>
</linearGradient>
<linearGradient id="paint56_linear_5022_40936" x1="231.916" y1="62.5714" x2="213.752" y2="64.9891" gradientUnits="userSpaceOnUse">
<stop stop-color="#FFE7E2"/>
<stop offset="0.520833" stop-color="#EADDFF"/>
<stop offset="1" stop-color="#DBFAFF"/>
</linearGradient>
<linearGradient id="paint57_linear_5022_40936" x1="65.0785" y1="62.0066" x2="46.8927" y2="64.3502" gradientUnits="userSpaceOnUse">
<stop stop-color="#FFE7E2"/>
<stop offset="0.520833" stop-color="#EADDFF"/>
<stop offset="1" stop-color="#DBFAFF"/>
</linearGradient>
<linearGradient id="paint58_linear_5022_40936" x1="262.626" y1="64.5732" x2="250.484" y2="65.9422" gradientUnits="userSpaceOnUse">
<stop stop-color="#FFE7E2"/>
<stop offset="0.520833" stop-color="#EADDFF"/>
<stop offset="1" stop-color="#DBFAFF"/>
</linearGradient>
<linearGradient id="paint59_linear_5022_40936" x1="28.9444" y1="64.1297" x2="16.787" y2="65.4572" gradientUnits="userSpaceOnUse">
<stop stop-color="#FFE7E2"/>
<stop offset="0.520833" stop-color="#EADDFF"/>
<stop offset="1" stop-color="#DBFAFF"/>
</linearGradient>
<linearGradient id="paint60_linear_5022_40936" x1="213.441" y1="64.5732" x2="201.298" y2="65.9422" gradientUnits="userSpaceOnUse">
<stop stop-color="#FFE7E2"/>
<stop offset="0.520833" stop-color="#EADDFF"/>
<stop offset="1" stop-color="#DBFAFF"/>
</linearGradient>
<linearGradient id="paint61_linear_5022_40936" x1="77.9993" y1="63.9997" x2="65.5656" y2="65.2021" gradientUnits="userSpaceOnUse">
<stop stop-color="#FFE7E2"/>
<stop offset="0.520833" stop-color="#EADDFF"/>
<stop offset="1" stop-color="#DBFAFF"/>
</linearGradient>
<linearGradient id="paint62_linear_5022_40936" x1="279.791" y1="1" x2="227.833" y2="14.8759" gradientUnits="userSpaceOnUse">
<stop stop-color="#DBF8FF"/>
<stop offset="0.53125" stop-color="#DDE4FF"/>
<stop offset="1" stop-color="#FEE2FF"/>
</linearGradient>
<linearGradient id="paint63_linear_5022_40936" x1="49.8056" y1="1" x2="-2.15657" y2="14.8784" gradientUnits="userSpaceOnUse">
<stop stop-color="#DBF8FF"/>
<stop offset="0.53125" stop-color="#DDE4FF"/>
<stop offset="1" stop-color="#FEE2FF"/>
</linearGradient>
<linearGradient id="paint64_linear_5022_40936" x1="247.517" y1="24.5789" x2="232.835" y2="26.7581" gradientUnits="userSpaceOnUse">
<stop stop-color="#FFE7E2"/>
<stop offset="0.520833" stop-color="#EADDFF"/>
<stop offset="1" stop-color="#DBFAFF"/>
</linearGradient>
<linearGradient id="paint65_linear_5022_40936" x1="46.4336" y1="24.1677" x2="31.7201" y2="26.2834" gradientUnits="userSpaceOnUse">
<stop stop-color="#FFE7E2"/>
<stop offset="0.520833" stop-color="#EADDFF"/>
<stop offset="1" stop-color="#DBFAFF"/>
</linearGradient>
<linearGradient id="paint66_linear_5022_40936" x1="230.658" y1="24.5789" x2="215.975" y2="26.7581" gradientUnits="userSpaceOnUse">
<stop stop-color="#FFE7E2"/>
<stop offset="0.520833" stop-color="#EADDFF"/>
<stop offset="1" stop-color="#DBFAFF"/>
</linearGradient>
<linearGradient id="paint67_linear_5022_40936" x1="63.2978" y1="24.5789" x2="48.6077" y2="26.7603" gradientUnits="userSpaceOnUse">
<stop stop-color="#FFE7E2"/>
<stop offset="0.520833" stop-color="#EADDFF"/>
<stop offset="1" stop-color="#DBFAFF"/>
</linearGradient>
<linearGradient id="paint68_linear_5022_40936" x1="229.312" y1="47.0574" x2="215.48" y2="48.9866" gradientUnits="userSpaceOnUse">
<stop stop-color="#FFE7E2"/>
<stop offset="0.520833" stop-color="#EADDFF"/>
<stop offset="1" stop-color="#DBFAFF"/>
</linearGradient>
<linearGradient id="paint69_linear_5022_40936" x1="63.8404" y1="46.6462" x2="49.9884" y2="48.5169" gradientUnits="userSpaceOnUse">
<stop stop-color="#FFE7E2"/>
<stop offset="0.520833" stop-color="#EADDFF"/>
<stop offset="1" stop-color="#DBFAFF"/>
</linearGradient>
<linearGradient id="paint70_linear_5022_40936" x1="211.599" y1="25.9635" x2="193.728" y2="28.0344" gradientUnits="userSpaceOnUse">
<stop stop-color="#FFE7E2"/>
<stop offset="0.520833" stop-color="#EADDFF"/>
<stop offset="1" stop-color="#DBFAFF"/>
</linearGradient>
<linearGradient id="paint71_linear_5022_40936" x1="85.0777" y1="25.3279" x2="67.1795" y2="27.337" gradientUnits="userSpaceOnUse">
<stop stop-color="#FFE7E2"/>
<stop offset="0.520833" stop-color="#EADDFF"/>
<stop offset="1" stop-color="#DBFAFF"/>
</linearGradient>
<linearGradient id="paint72_linear_5022_40936" x1="178.319" y1="26.7305" x2="95.3608" y2="43.1981" gradientUnits="userSpaceOnUse">
<stop stop-color="#DBF8FF"/>
<stop offset="0.53125" stop-color="#DDE4FF"/>
<stop offset="1" stop-color="#FEE2FF"/>
</linearGradient>
<linearGradient id="paint73_linear_5022_40936" x1="178.322" y1="26.7305" x2="167.549" y2="26.9978" gradientUnits="userSpaceOnUse">
<stop stop-color="#DBF8FF"/>
<stop offset="0.53125" stop-color="#DDE4FF"/>
<stop offset="1" stop-color="#FEE2FF"/>
</linearGradient>
<linearGradient id="paint74_linear_5022_40936" x1="178.321" y1="25.1468" x2="167.545" y2="25.4066" gradientUnits="userSpaceOnUse">
<stop stop-color="#FFE7E2"/>
<stop offset="0.520833" stop-color="#EADDFF"/>
<stop offset="1" stop-color="#DBFAFF"/>
</linearGradient>
<linearGradient id="paint75_linear_5022_40936" x1="112.173" y1="26.7305" x2="101.4" y2="26.9978" gradientUnits="userSpaceOnUse">
<stop stop-color="#DBF8FF"/>
<stop offset="0.53125" stop-color="#DDE4FF"/>
<stop offset="1" stop-color="#FEE2FF"/>
</linearGradient>
<linearGradient id="paint76_linear_5022_40936" x1="210.484" y1="55.6619" x2="197.364" y2="73.2451" gradientUnits="userSpaceOnUse">
<stop stop-color="#FFE7E2"/>
<stop offset="0.520833" stop-color="#EADDFF"/>
<stop offset="1" stop-color="#DBFAFF"/>
</linearGradient>
<linearGradient id="paint77_linear_5022_40936" x1="102.496" y1="55.7686" x2="89.9112" y2="73.1836" gradientUnits="userSpaceOnUse">
<stop stop-color="#DBF8FF"/>
<stop offset="0.53125" stop-color="#DDE4FF"/>
<stop offset="1" stop-color="#FEE2FF"/>
</linearGradient>
</defs>
</svg>
