<svg width="61" height="137" viewBox="0 0 61 137" fill="none" xmlns="http://www.w3.org/2000/svg">
<path d="M24.0365 56.8479L19.6846 88.0725C19.5924 88.7342 19.2919 89.3493 18.8267 89.8287L1.86475 107.311C1.45797 107.73 1.23047 108.291 1.23047 108.876V114.301C1.23047 115.382 2.00057 116.31 3.06329 116.51L20.9678 119.867C22.0306 120.066 22.8007 120.994 22.8007 122.075V124.479M24.0365 56.8479L27.8089 46.9615M24.0365 56.8479L22.8007 124.479M37.0684 56.8479L41.4203 88.0725C41.5125 88.7342 41.813 89.3493 42.2782 89.8287L59.2401 107.311C59.6469 107.73 59.8744 108.291 59.8744 108.876V114.301C59.8744 115.382 59.1043 116.31 58.0416 116.51L40.1371 119.867C39.0743 120.066 38.3042 120.994 38.3042 122.075V124.479M37.0684 56.8479L33.296 46.9615M37.0684 56.8479L38.3042 124.479M27.8089 46.9615L29.5028 42.5222C29.8706 41.5583 31.2343 41.5583 31.6021 42.5222L33.296 46.9615M27.8089 46.9615H33.296M22.8007 124.479V126.951C22.8007 127.944 23.6054 128.749 24.5982 128.749H36.5067C37.4995 128.749 38.3042 127.944 38.3042 126.951V124.479" stroke="url(#paint0_linear_4535_33745)" stroke-width="0.8"/>
<path d="M29.5025 42.5222L27.8086 46.9615H33.2957L31.6018 42.5222C31.234 41.5583 29.8703 41.5583 29.5025 42.5222Z" fill="url(#paint1_linear_4535_33745)" stroke="url(#paint2_linear_4535_33745)" stroke-width="0.8"/>
<path d="M20.1045 85.1573V48.6453M41.0006 85.1573V48.6453M20.1045 29.322V19.6865C20.1045 19.1535 20.2399 18.6293 20.498 18.163L28.5868 3.55111C29.442 2.0062 31.6631 2.0062 32.5183 3.55111L40.6071 18.163C40.8652 18.6293 41.0006 19.1535 41.0006 19.6865V29.322M20.1045 29.322H41.0006M20.1045 29.322V48.6453M41.0006 29.322V48.6453M20.1045 48.6453H27.1822M41.0006 48.6453H33.9229" stroke="url(#paint3_linear_4535_33745)" stroke-width="0.8"/>
<path d="M10.3301 98.4129V39.6729M10.3301 39.6729L13.8376 28.8509C14.2392 27.612 15.9897 27.606 16.3997 28.8421L19.9917 39.6729M10.3301 39.6729H19.9917M19.9917 85.8303V39.6729" stroke="url(#paint4_linear_4535_33745)" stroke-width="0.8"/>
<path d="M10.3311 117.85V127.987C10.3311 128.193 10.2959 128.397 10.2269 128.59L8.87064 132.398M19.9928 119.647V128.091C19.9928 128.228 20.0085 128.365 20.0396 128.499L20.9477 132.398M8.87064 132.398L8.05142 134.698C7.73879 135.576 8.38962 136.499 9.32141 136.499H20.2045C21.0725 136.499 21.7144 135.69 21.5175 134.845L20.9477 132.398M8.87064 132.398H20.9477" stroke="url(#paint5_linear_4535_33745)" stroke-width="0.8"/>
<path d="M20.2045 136.499H9.32141C8.38962 136.499 7.73879 135.576 8.05142 134.699L8.87064 132.398H20.9477L21.5175 134.845C21.7144 135.691 21.0725 136.499 20.2045 136.499Z" fill="url(#paint6_linear_4535_33745)" stroke="url(#paint7_linear_4535_33745)" stroke-width="0.8"/>
<path d="M50.7743 117.85V127.987C50.7743 128.193 50.8096 128.397 50.8785 128.59L52.2348 132.398M41.1127 119.647V128.091C41.1127 128.228 41.097 128.365 41.0659 128.499L40.1578 132.398M40.1578 132.398L39.588 134.845C39.3911 135.69 40.0329 136.499 40.901 136.499H51.7841C52.7158 136.499 53.3667 135.576 53.0541 134.698L52.2348 132.398M40.1578 132.398H52.2348" stroke="url(#paint8_linear_4535_33745)" stroke-width="0.8"/>
<path d="M40.901 136.499H51.7841C52.7158 136.499 53.3667 135.576 53.0541 134.699L52.2348 132.398H40.1578L39.588 134.845C39.3911 135.691 40.0329 136.499 40.901 136.499Z" fill="url(#paint9_linear_4535_33745)" stroke="url(#paint10_linear_4535_33745)" stroke-width="0.8"/>
<path d="M50.7744 98.4129V39.6729M50.7744 39.6729L47.2669 28.8509C46.8653 27.612 45.1147 27.606 44.7048 28.8421L41.1128 39.6729M50.7744 39.6729H41.1128M41.1128 85.8303V39.6729" stroke="url(#paint11_linear_4535_33745)" stroke-width="0.8"/>
<path d="M26.9393 55.2159L29.0906 54.1803C30.0144 53.7356 31.0905 53.7356 32.0144 54.1803L34.1656 55.2159C34.475 55.3649 34.6993 55.6472 34.7745 55.9822L35.0667 57.2846C35.1184 57.5149 34.8255 57.6589 34.6746 57.4774L34.0633 56.7416C33.7819 56.403 33.3978 56.1655 32.9693 56.0651L31.4239 55.703C30.8507 55.5687 30.2542 55.5687 29.681 55.703L28.1357 56.0651C27.7071 56.1655 27.323 56.403 27.0417 56.7416L26.4303 57.4774C26.2795 57.6589 25.9866 57.5149 26.0382 57.2846L26.3304 55.9822C26.4056 55.6472 26.6299 55.3649 26.9393 55.2159Z" fill="url(#paint12_linear_4535_33745)" stroke="url(#paint13_linear_4535_33745)" stroke-width="0.8"/>
<rect x="28.3057" y="60.2168" width="1.34814" height="1.34814" rx="0.22469" fill="url(#paint14_linear_4535_33745)"/>
<rect x="31.4512" y="60.2168" width="1.34814" height="1.34814" rx="0.22469" fill="url(#paint15_linear_4535_33745)"/>
<path d="M19.9921 85.7207V92.6398C19.9921 93.3259 19.7679 93.9931 19.3535 94.5399L12.5679 103.493C12.1376 104.061 11.9128 104.758 11.9301 105.47L12.2404 118.188" stroke="url(#paint16_linear_4535_33745)" stroke-width="0.8"/>
<path d="M41.1133 85.7207V92.6398C41.1133 93.3259 41.3376 93.9931 41.752 94.5399L48.5376 103.493C48.9679 104.061 49.1927 104.758 49.1753 105.47L48.8651 118.188" stroke="url(#paint17_linear_4535_33745)" stroke-width="0.8"/>
<path d="M22.9131 124.701H29.2044C29.5767 124.701 29.8785 125.003 29.8785 125.375V128.746H24.7106C23.7179 128.746 22.9131 127.941 22.9131 126.948V124.701Z" fill="url(#paint18_linear_4535_33745)"/>
<path d="M31.2266 125.375C31.2266 125.003 31.5284 124.701 31.9006 124.701H38.1919V126.948C38.1919 127.941 37.3872 128.746 36.3944 128.746H31.2266V125.375Z" fill="url(#paint19_linear_4535_33745)"/>
<path d="M1.23047 112.008V112.794C1.23047 114.035 2.23644 115.041 3.47736 115.041H22.913" stroke="url(#paint20_linear_4535_33745)" stroke-width="0.8"/>
<path d="M59.875 112.008V112.794C59.875 114.035 58.869 115.041 57.6281 115.041H38.1925" stroke="url(#paint21_linear_4535_33745)" stroke-width="0.8"/>
<path d="M16.5098 115.041V119.085" stroke="url(#paint22_linear_4535_33745)" stroke-width="0.8"/>
<path d="M18.6445 115.041V119.422" stroke="url(#paint23_linear_4535_33745)" stroke-width="0.8"/>
<path d="M14.375 115.041V118.636" stroke="url(#paint24_linear_4535_33745)" stroke-width="0.8"/>
<path d="M20.7783 115.041V119.759" stroke="url(#paint25_linear_4535_33745)" stroke-width="0.8"/>
<path d="M6.06152 115.041V117.063" stroke="url(#paint26_linear_4535_33745)" stroke-width="0.8"/>
<path d="M8.19629 115.041V117.4" stroke="url(#paint27_linear_4535_33745)" stroke-width="0.8"/>
<path d="M3.92676 115.041V116.726" stroke="url(#paint28_linear_4535_33745)" stroke-width="0.8"/>
<path d="M10.3301 115.041V117.85" stroke="url(#paint29_linear_4535_33745)" stroke-width="0.8"/>
<path d="M44.5938 115.041V119.085" stroke="url(#paint30_linear_4535_33745)" stroke-width="0.8"/>
<path d="M42.459 115.041V119.422" stroke="url(#paint31_linear_4535_33745)" stroke-width="0.8"/>
<path d="M46.7285 115.041V118.636" stroke="url(#paint32_linear_4535_33745)" stroke-width="0.8"/>
<path d="M40.3252 115.041V119.759" stroke="url(#paint33_linear_4535_33745)" stroke-width="0.8"/>
<path d="M55.041 115.041V117.063" stroke="url(#paint34_linear_4535_33745)" stroke-width="0.8"/>
<path d="M52.9062 115.041V117.4" stroke="url(#paint35_linear_4535_33745)" stroke-width="0.8"/>
<path d="M57.1758 115.041V116.726" stroke="url(#paint36_linear_4535_33745)" stroke-width="0.8"/>
<path d="M50.7725 115.041V117.85" stroke="url(#paint37_linear_4535_33745)" stroke-width="0.8"/>
<path d="M20.1041 48.6445H10.3301" stroke="url(#paint38_linear_4535_33745)" stroke-width="0.8"/>
<path d="M50.8863 48.6445H41.1123" stroke="url(#paint39_linear_4535_33745)" stroke-width="0.8"/>
<path d="M20.1041 67.1816H10.3301" stroke="url(#paint40_linear_4535_33745)" stroke-width="0.8"/>
<path d="M50.8863 67.1816H41.1123" stroke="url(#paint41_linear_4535_33745)" stroke-width="0.8"/>
<path d="M20.1041 57.9688H10.3301" stroke="url(#paint42_linear_4535_33745)" stroke-width="0.8"/>
<path d="M50.8863 57.9688H41.1123" stroke="url(#paint43_linear_4535_33745)" stroke-width="0.8"/>
<path d="M20.1041 76.5078H10.3301" stroke="url(#paint44_linear_4535_33745)" stroke-width="0.8"/>
<path d="M50.8863 76.5078H41.1123" stroke="url(#paint45_linear_4535_33745)" stroke-width="0.8"/>
<path d="M20.1041 86.0547H10.3301" stroke="url(#paint46_linear_4535_33745)" stroke-width="0.8"/>
<path d="M50.8863 86.0547H41.1123" stroke="url(#paint47_linear_4535_33745)" stroke-width="0.8"/>
<defs>
<linearGradient id="paint0_linear_4535_33745" x1="52.066" y1="40.6512" x2="60.4358" y2="41.5434" gradientUnits="userSpaceOnUse">
<stop stop-color="#DBFAFF"/>
<stop offset="0.520833" stop-color="#EADDFF"/>
<stop offset="1" stop-color="#FFE7E2"/>
</linearGradient>
<linearGradient id="paint1_linear_4535_33745" x1="33.2957" y1="39.7715" x2="27.1082" y2="40.4355" gradientUnits="userSpaceOnUse">
<stop stop-color="#DBFAFF"/>
<stop offset="0.520833" stop-color="#EADDFF"/>
<stop offset="1" stop-color="#FFE7E2"/>
</linearGradient>
<linearGradient id="paint2_linear_4535_33745" x1="33.2957" y1="39.7715" x2="27.1082" y2="40.4355" gradientUnits="userSpaceOnUse">
<stop stop-color="#DBFAFF"/>
<stop offset="0.520833" stop-color="#EADDFF"/>
<stop offset="1" stop-color="#FFE7E2"/>
</linearGradient>
<linearGradient id="paint3_linear_4535_33745" x1="38.2183" y1="0.841959" x2="41.2298" y2="0.96148" gradientUnits="userSpaceOnUse">
<stop stop-color="#DBFAFF"/>
<stop offset="0.520833" stop-color="#EADDFF"/>
<stop offset="1" stop-color="#FFE7E2"/>
</linearGradient>
<linearGradient id="paint4_linear_4535_33745" x1="18.609" y1="25.6659" x2="19.987" y2="25.6949" gradientUnits="userSpaceOnUse">
<stop stop-color="#DBFAFF"/>
<stop offset="0.520833" stop-color="#EADDFF"/>
<stop offset="1" stop-color="#FFE7E2"/>
</linearGradient>
<linearGradient id="paint5_linear_4535_33745" x1="18.6101" y1="68.1333" x2="19.988" y2="68.1622" gradientUnits="userSpaceOnUse">
<stop stop-color="#DBFAFF"/>
<stop offset="0.520833" stop-color="#EADDFF"/>
<stop offset="1" stop-color="#FFE7E2"/>
</linearGradient>
<linearGradient id="paint6_linear_4535_33745" x1="21.9026" y1="132.398" x2="8.64656" y2="138.987" gradientUnits="userSpaceOnUse">
<stop stop-color="#DBF8FF"/>
<stop offset="0.53125" stop-color="#DDE4FF"/>
<stop offset="1" stop-color="#FEE2FF"/>
</linearGradient>
<linearGradient id="paint7_linear_4535_33745" x1="21.9026" y1="132.398" x2="8.64656" y2="138.987" gradientUnits="userSpaceOnUse">
<stop stop-color="#DBFAFF"/>
<stop offset="0.520833" stop-color="#EADDFF"/>
<stop offset="1" stop-color="#FFE7E2"/>
</linearGradient>
<linearGradient id="paint8_linear_4535_33745" x1="42.4954" y1="68.1333" x2="41.1174" y2="68.1622" gradientUnits="userSpaceOnUse">
<stop stop-color="#FFE7E2"/>
<stop offset="0.520833" stop-color="#EADDFF"/>
<stop offset="1" stop-color="#DBFAFF"/>
</linearGradient>
<linearGradient id="paint9_linear_4535_33745" x1="39.2028" y1="132.398" x2="52.4589" y2="138.987" gradientUnits="userSpaceOnUse">
<stop stop-color="#DBFAFF"/>
<stop offset="0.520833" stop-color="#EADDFF"/>
<stop offset="1" stop-color="#FFE7E2"/>
</linearGradient>
<linearGradient id="paint10_linear_4535_33745" x1="39.2028" y1="132.398" x2="52.4589" y2="138.987" gradientUnits="userSpaceOnUse">
<stop stop-color="#DBFAFF"/>
<stop offset="0.520833" stop-color="#EADDFF"/>
<stop offset="1" stop-color="#FFE7E2"/>
</linearGradient>
<linearGradient id="paint11_linear_4535_33745" x1="42.4955" y1="25.6659" x2="41.1175" y2="25.6949" gradientUnits="userSpaceOnUse">
<stop stop-color="#FFE7E2"/>
<stop offset="0.520833" stop-color="#EADDFF"/>
<stop offset="1" stop-color="#DBFAFF"/>
</linearGradient>
<linearGradient id="paint12_linear_4535_33745" x1="35.2709" y1="53.4766" x2="25.2959" y2="56.282" gradientUnits="userSpaceOnUse">
<stop stop-color="#DBFAFF"/>
<stop offset="0.520833" stop-color="#EADDFF"/>
<stop offset="1" stop-color="#FFE7E2"/>
</linearGradient>
<linearGradient id="paint13_linear_4535_33745" x1="35.2709" y1="53.4766" x2="25.2959" y2="56.282" gradientUnits="userSpaceOnUse">
<stop stop-color="#DBFAFF"/>
<stop offset="0.520833" stop-color="#EADDFF"/>
<stop offset="1" stop-color="#FFE7E2"/>
</linearGradient>
<linearGradient id="paint14_linear_4535_33745" x1="29.6538" y1="60.2168" x2="28.1459" y2="60.4288" gradientUnits="userSpaceOnUse">
<stop stop-color="#DBFAFF"/>
<stop offset="0.520833" stop-color="#EADDFF"/>
<stop offset="1" stop-color="#FFE7E2"/>
</linearGradient>
<linearGradient id="paint15_linear_4535_33745" x1="32.7993" y1="60.2168" x2="31.2914" y2="60.4288" gradientUnits="userSpaceOnUse">
<stop stop-color="#DBFAFF"/>
<stop offset="0.520833" stop-color="#EADDFF"/>
<stop offset="1" stop-color="#FFE7E2"/>
</linearGradient>
<linearGradient id="paint16_linear_4535_33745" x1="14.177" y1="86.0417" x2="11.7299" y2="86.2499" gradientUnits="userSpaceOnUse">
<stop stop-color="#DBFAFF"/>
<stop offset="0.520833" stop-color="#EADDFF"/>
<stop offset="1" stop-color="#FFE7E2"/>
</linearGradient>
<linearGradient id="paint17_linear_4535_33745" x1="46.9284" y1="86.0417" x2="49.3756" y2="86.2499" gradientUnits="userSpaceOnUse">
<stop stop-color="#DBFAFF"/>
<stop offset="0.520833" stop-color="#EADDFF"/>
<stop offset="1" stop-color="#FFE7E2"/>
</linearGradient>
<linearGradient id="paint18_linear_4535_33745" x1="29.8785" y1="124.701" x2="22.3738" y2="126.519" gradientUnits="userSpaceOnUse">
<stop stop-color="#DBFAFF"/>
<stop offset="0.520833" stop-color="#EADDFF"/>
<stop offset="1" stop-color="#FFE7E2"/>
</linearGradient>
<linearGradient id="paint19_linear_4535_33745" x1="38.1919" y1="124.701" x2="30.6872" y2="126.519" gradientUnits="userSpaceOnUse">
<stop stop-color="#DBFAFF"/>
<stop offset="0.520833" stop-color="#EADDFF"/>
<stop offset="1" stop-color="#FFE7E2"/>
</linearGradient>
<linearGradient id="paint20_linear_4535_33745" x1="7.00449" y1="112.038" x2="6.01823" y2="114.318" gradientUnits="userSpaceOnUse">
<stop stop-color="#DBFAFF"/>
<stop offset="0.520833" stop-color="#EADDFF"/>
<stop offset="1" stop-color="#FFE7E2"/>
</linearGradient>
<linearGradient id="paint21_linear_4535_33745" x1="54.101" y1="112.038" x2="55.0872" y2="114.318" gradientUnits="userSpaceOnUse">
<stop stop-color="#DBFAFF"/>
<stop offset="0.520833" stop-color="#EADDFF"/>
<stop offset="1" stop-color="#FFE7E2"/>
</linearGradient>
<linearGradient id="paint22_linear_4535_33745" x1="17.5098" y1="115.041" x2="16.3705" y2="115.081" gradientUnits="userSpaceOnUse">
<stop stop-color="#DBF8FF"/>
<stop offset="0.53125" stop-color="#DDE4FF"/>
<stop offset="1" stop-color="#FEE2FF"/>
</linearGradient>
<linearGradient id="paint23_linear_4535_33745" x1="19.6445" y1="115.041" x2="18.5051" y2="115.078" gradientUnits="userSpaceOnUse">
<stop stop-color="#DBF8FF"/>
<stop offset="0.53125" stop-color="#DDE4FF"/>
<stop offset="1" stop-color="#FEE2FF"/>
</linearGradient>
<linearGradient id="paint24_linear_4535_33745" x1="15.375" y1="115.041" x2="14.2361" y2="115.086" gradientUnits="userSpaceOnUse">
<stop stop-color="#DBF8FF"/>
<stop offset="0.53125" stop-color="#DDE4FF"/>
<stop offset="1" stop-color="#FEE2FF"/>
</linearGradient>
<linearGradient id="paint25_linear_4535_33745" x1="21.7783" y1="115.041" x2="20.6387" y2="115.075" gradientUnits="userSpaceOnUse">
<stop stop-color="#DBF8FF"/>
<stop offset="0.53125" stop-color="#DDE4FF"/>
<stop offset="1" stop-color="#FEE2FF"/>
</linearGradient>
<linearGradient id="paint26_linear_4535_33745" x1="7.06152" y1="115.041" x2="5.92639" y2="115.12" gradientUnits="userSpaceOnUse">
<stop stop-color="#DBF8FF"/>
<stop offset="0.53125" stop-color="#DDE4FF"/>
<stop offset="1" stop-color="#FEE2FF"/>
</linearGradient>
<linearGradient id="paint27_linear_4535_33745" x1="9.19629" y1="115.041" x2="8.0597" y2="115.109" gradientUnits="userSpaceOnUse">
<stop stop-color="#DBF8FF"/>
<stop offset="0.53125" stop-color="#DDE4FF"/>
<stop offset="1" stop-color="#FEE2FF"/>
</linearGradient>
<linearGradient id="paint28_linear_4535_33745" x1="4.92676" y1="115.041" x2="3.79402" y2="115.136" gradientUnits="userSpaceOnUse">
<stop stop-color="#DBF8FF"/>
<stop offset="0.53125" stop-color="#DDE4FF"/>
<stop offset="1" stop-color="#FEE2FF"/>
</linearGradient>
<linearGradient id="paint29_linear_4535_33745" x1="11.3301" y1="115.041" x2="10.1923" y2="115.098" gradientUnits="userSpaceOnUse">
<stop stop-color="#DBF8FF"/>
<stop offset="0.53125" stop-color="#DDE4FF"/>
<stop offset="1" stop-color="#FEE2FF"/>
</linearGradient>
<linearGradient id="paint30_linear_4535_33745" x1="43.5938" y1="115.041" x2="44.733" y2="115.081" gradientUnits="userSpaceOnUse">
<stop stop-color="#DBF8FF"/>
<stop offset="0.53125" stop-color="#DDE4FF"/>
<stop offset="1" stop-color="#FEE2FF"/>
</linearGradient>
<linearGradient id="paint31_linear_4535_33745" x1="41.459" y1="115.041" x2="42.5984" y2="115.078" gradientUnits="userSpaceOnUse">
<stop stop-color="#DBF8FF"/>
<stop offset="0.53125" stop-color="#DDE4FF"/>
<stop offset="1" stop-color="#FEE2FF"/>
</linearGradient>
<linearGradient id="paint32_linear_4535_33745" x1="45.7285" y1="115.041" x2="46.8674" y2="115.086" gradientUnits="userSpaceOnUse">
<stop stop-color="#DBF8FF"/>
<stop offset="0.53125" stop-color="#DDE4FF"/>
<stop offset="1" stop-color="#FEE2FF"/>
</linearGradient>
<linearGradient id="paint33_linear_4535_33745" x1="39.3252" y1="115.041" x2="40.4648" y2="115.075" gradientUnits="userSpaceOnUse">
<stop stop-color="#DBF8FF"/>
<stop offset="0.53125" stop-color="#DDE4FF"/>
<stop offset="1" stop-color="#FEE2FF"/>
</linearGradient>
<linearGradient id="paint34_linear_4535_33745" x1="54.041" y1="115.041" x2="55.1762" y2="115.12" gradientUnits="userSpaceOnUse">
<stop stop-color="#DBF8FF"/>
<stop offset="0.53125" stop-color="#DDE4FF"/>
<stop offset="1" stop-color="#FEE2FF"/>
</linearGradient>
<linearGradient id="paint35_linear_4535_33745" x1="51.9062" y1="115.041" x2="53.0428" y2="115.109" gradientUnits="userSpaceOnUse">
<stop stop-color="#DBF8FF"/>
<stop offset="0.53125" stop-color="#DDE4FF"/>
<stop offset="1" stop-color="#FEE2FF"/>
</linearGradient>
<linearGradient id="paint36_linear_4535_33745" x1="56.1758" y1="115.041" x2="57.3085" y2="115.136" gradientUnits="userSpaceOnUse">
<stop stop-color="#DBF8FF"/>
<stop offset="0.53125" stop-color="#DDE4FF"/>
<stop offset="1" stop-color="#FEE2FF"/>
</linearGradient>
<linearGradient id="paint37_linear_4535_33745" x1="49.7725" y1="115.041" x2="50.9102" y2="115.098" gradientUnits="userSpaceOnUse">
<stop stop-color="#DBF8FF"/>
<stop offset="0.53125" stop-color="#DDE4FF"/>
<stop offset="1" stop-color="#FEE2FF"/>
</linearGradient>
<linearGradient id="paint38_linear_4535_33745" x1="12.9329" y1="48.6544" x2="12.6763" y2="49.4657" gradientUnits="userSpaceOnUse">
<stop stop-color="#DBFAFF"/>
<stop offset="0.520833" stop-color="#EADDFF"/>
<stop offset="1" stop-color="#FFE7E2"/>
</linearGradient>
<linearGradient id="paint39_linear_4535_33745" x1="43.7151" y1="48.6544" x2="43.4585" y2="49.4657" gradientUnits="userSpaceOnUse">
<stop stop-color="#DBFAFF"/>
<stop offset="0.520833" stop-color="#EADDFF"/>
<stop offset="1" stop-color="#FFE7E2"/>
</linearGradient>
<linearGradient id="paint40_linear_4535_33745" x1="12.9329" y1="67.1915" x2="12.6763" y2="68.0028" gradientUnits="userSpaceOnUse">
<stop stop-color="#DBFAFF"/>
<stop offset="0.520833" stop-color="#EADDFF"/>
<stop offset="1" stop-color="#FFE7E2"/>
</linearGradient>
<linearGradient id="paint41_linear_4535_33745" x1="43.7151" y1="67.1915" x2="43.4585" y2="68.0028" gradientUnits="userSpaceOnUse">
<stop stop-color="#DBFAFF"/>
<stop offset="0.520833" stop-color="#EADDFF"/>
<stop offset="1" stop-color="#FFE7E2"/>
</linearGradient>
<linearGradient id="paint42_linear_4535_33745" x1="12.9329" y1="57.9786" x2="12.6763" y2="58.7899" gradientUnits="userSpaceOnUse">
<stop stop-color="#DBFAFF"/>
<stop offset="0.520833" stop-color="#EADDFF"/>
<stop offset="1" stop-color="#FFE7E2"/>
</linearGradient>
<linearGradient id="paint43_linear_4535_33745" x1="43.7151" y1="57.9786" x2="43.4585" y2="58.7899" gradientUnits="userSpaceOnUse">
<stop stop-color="#DBFAFF"/>
<stop offset="0.520833" stop-color="#EADDFF"/>
<stop offset="1" stop-color="#FFE7E2"/>
</linearGradient>
<linearGradient id="paint44_linear_4535_33745" x1="12.9329" y1="76.5177" x2="12.6763" y2="77.329" gradientUnits="userSpaceOnUse">
<stop stop-color="#DBFAFF"/>
<stop offset="0.520833" stop-color="#EADDFF"/>
<stop offset="1" stop-color="#FFE7E2"/>
</linearGradient>
<linearGradient id="paint45_linear_4535_33745" x1="43.7151" y1="76.5177" x2="43.4585" y2="77.329" gradientUnits="userSpaceOnUse">
<stop stop-color="#DBFAFF"/>
<stop offset="0.520833" stop-color="#EADDFF"/>
<stop offset="1" stop-color="#FFE7E2"/>
</linearGradient>
<linearGradient id="paint46_linear_4535_33745" x1="12.9329" y1="86.0646" x2="12.6763" y2="86.8759" gradientUnits="userSpaceOnUse">
<stop stop-color="#DBFAFF"/>
<stop offset="0.520833" stop-color="#EADDFF"/>
<stop offset="1" stop-color="#FFE7E2"/>
</linearGradient>
<linearGradient id="paint47_linear_4535_33745" x1="43.7151" y1="86.0646" x2="43.4585" y2="86.8759" gradientUnits="userSpaceOnUse">
<stop stop-color="#DBFAFF"/>
<stop offset="0.520833" stop-color="#EADDFF"/>
<stop offset="1" stop-color="#FFE7E2"/>
</linearGradient>
</defs>
</svg>
