<svg width="149" height="162" viewBox="0 0 149 162" fill="none" xmlns="http://www.w3.org/2000/svg">
<path d="M108.65 7.94336L97.4629 30.5104" stroke="url(#paint0_linear_4535_33691)" stroke-width="0.8"/>
<path d="M108.65 35.7188L97.4629 58.2858" stroke="url(#paint1_linear_4535_33691)" stroke-width="0.8"/>
<path d="M108.65 63.4941L97.4629 86.0612" stroke="url(#paint2_linear_4535_33691)" stroke-width="0.8"/>
<path d="M108.65 49.6055L97.4629 72.1725" stroke="url(#paint3_linear_4535_33691)" stroke-width="0.8"/>
<path d="M108.65 21.8301L97.4629 44.3971" stroke="url(#paint4_linear_4535_33691)" stroke-width="0.8"/>
<path d="M108.65 42.6621L97.4629 65.2291" stroke="url(#paint5_linear_4535_33691)" stroke-width="0.8"/>
<path d="M108.65 77.3809L99.1836 96.476" stroke="url(#paint6_linear_4535_33691)" stroke-width="0.8"/>
<path d="M108.65 56.5488L97.4629 79.1159" stroke="url(#paint7_linear_4535_33691)" stroke-width="0.8"/>
<path d="M108.65 14.8867L97.4629 37.4538" stroke="url(#paint8_linear_4535_33691)" stroke-width="0.8"/>
<path d="M108.651 70.4375L97.6064 92.7163" stroke="url(#paint9_linear_4535_33691)" stroke-width="0.8"/>
<path d="M108.65 28.7754L97.4629 51.3424" stroke="url(#paint10_linear_4535_33691)" stroke-width="0.8"/>
<path d="M108.649 84.3242L99.2637 103.258" stroke="url(#paint11_linear_4535_33691)" stroke-width="0.8"/>
<path d="M108.65 91.2676L102.722 103.226" stroke="url(#paint12_linear_4535_33691)" stroke-width="0.8"/>
<path d="M40.7543 7.94336L51.9414 30.5104" stroke="url(#paint13_linear_4535_33691)" stroke-width="0.8"/>
<path d="M40.7543 35.7188L51.9414 58.2858" stroke="url(#paint14_linear_4535_33691)" stroke-width="0.8"/>
<path d="M40.7543 63.4941L51.9414 86.0612" stroke="url(#paint15_linear_4535_33691)" stroke-width="0.8"/>
<path d="M40.7543 49.6055L51.9414 72.1725" stroke="url(#paint16_linear_4535_33691)" stroke-width="0.8"/>
<path d="M40.7543 21.8301L51.9414 44.3971" stroke="url(#paint17_linear_4535_33691)" stroke-width="0.8"/>
<path d="M40.7543 42.6621L51.9414 65.2291" stroke="url(#paint18_linear_4535_33691)" stroke-width="0.8"/>
<path d="M40.7547 77.3809L50.2207 96.476" stroke="url(#paint19_linear_4535_33691)" stroke-width="0.8"/>
<path d="M40.7543 56.5488L51.9414 79.1159" stroke="url(#paint20_linear_4535_33691)" stroke-width="0.8"/>
<path d="M40.7543 14.8867L51.9414 37.4538" stroke="url(#paint21_linear_4535_33691)" stroke-width="0.8"/>
<path d="M40.7537 70.4375L51.7979 92.7163" stroke="url(#paint22_linear_4535_33691)" stroke-width="0.8"/>
<path d="M40.7543 28.7754L51.9414 51.3424" stroke="url(#paint23_linear_4535_33691)" stroke-width="0.8"/>
<path d="M40.7549 84.3242L50.1406 103.258" stroke="url(#paint24_linear_4535_33691)" stroke-width="0.8"/>
<path d="M40.7544 91.2676L46.6826 103.226" stroke="url(#paint25_linear_4535_33691)" stroke-width="0.8"/>
<path d="M16.8379 134.088V142.99C16.8379 152.983 42.6609 161.091 74.5219 161.091C106.358 161.091 132.18 152.983 132.18 142.99V134.088" stroke="url(#paint26_linear_4535_33691)" stroke-width="0.8"/>
<path d="M11.8232 117.691V129.071C11.8232 136.099 39.8917 141.801 74.5232 141.801C109.127 141.801 137.196 136.099 137.196 129.071V117.691" stroke="url(#paint27_linear_4535_33691)" stroke-width="0.8"/>
<path d="M137.196 120.393C137.196 124.079 129.473 127.4 117.136 129.726M11.8232 120.393C11.8232 124.136 19.7858 127.503 32.4615 129.833" stroke="url(#paint28_linear_4535_33691)" stroke-width="0.8"/>
<path d="M32.4619 118.85V131.387L74.7028 134.666L117.136 131.387V118.85" stroke="url(#paint29_linear_4535_33691)" stroke-width="0.8"/>
<path d="M74.7024 121.743L40.7554 119.516M40.7554 1L1.21484 9.48675V116.921L40.7554 119.516M40.7554 1L51.9424 23.567V32.2467H74.7024M40.7554 1V119.516" stroke="url(#paint30_linear_4535_33691)" stroke-width="0.8"/>
<path d="M74.7019 121.743L108.649 119.516M108.649 1L148.189 9.48675V116.921L108.649 119.516M108.649 1L97.4619 23.567V32.2467H74.7019M108.649 1V119.516" stroke="url(#paint31_linear_4535_33691)" stroke-width="0.8"/>
<path d="M6.03711 41.6963V21.6368L18.3815 18.8652V41.1177L6.03711 41.6963Z" stroke="url(#paint32_linear_4535_33691)" stroke-width="0.8"/>
<path d="M6.03711 65.0349V45.1682L18.3815 44.5895V65.0349H6.03711Z" stroke="url(#paint33_linear_4535_33691)" stroke-width="0.8"/>
<path d="M6.03711 88.5663V68.6996L18.3815 68.3139V88.3734L6.03711 88.5663Z" stroke="url(#paint34_linear_4535_33691)" stroke-width="0.8"/>
<path d="M6.03711 112.291V92.6168H18.3815V112.869L6.03711 112.291Z" stroke="url(#paint35_linear_4535_33691)" stroke-width="0.8"/>
<path d="M143.368 41.6963V21.6368L131.024 18.8652V41.1177L143.368 41.6963Z" stroke="url(#paint36_linear_4535_33691)" stroke-width="0.8"/>
<path d="M143.368 65.0349V45.1682L131.024 44.5895V65.0349H143.368Z" stroke="url(#paint37_linear_4535_33691)" stroke-width="0.8"/>
<path d="M143.368 88.5663V68.6996L131.024 68.3139V88.3734L143.368 88.5663Z" stroke="url(#paint38_linear_4535_33691)" stroke-width="0.8"/>
<path d="M143.368 112.291V92.6168H131.024V112.869L143.368 112.291Z" stroke="url(#paint39_linear_4535_33691)" stroke-width="0.8"/>
<path d="M77.9814 55.9707L97.0766 86.253" stroke="#FF5555" stroke-width="0.8"/>
<path d="M52.3281 86.2539L71.4233 55.9717" stroke="#FF5555" stroke-width="0.8"/>
<path d="M59.0791 101.49L73.3523 57.7063" stroke="#FF5555" stroke-width="0.8"/>
<path d="M76.0518 57.707L90.3249 101.491" stroke="#FF5555" stroke-width="0.8"/>
<path d="M104.791 111.52H108.649V103.227H40.7549V111.52H46.3484M104.791 111.52V118.078H99.9692V111.52M104.791 111.52H99.9692M99.9692 111.52H51.3633M51.3633 111.52V118.078H46.3484V111.52M51.3633 111.52H46.3484" stroke="url(#paint40_linear_4535_33691)" stroke-width="0.8"/>
<path d="M72.1112 74.574C72.6274 74.4594 73.1667 74.378 73.7233 74.3332L73.7554 74.7319C74.0657 74.707 74.3817 74.6938 74.7023 74.693C75.0226 74.6926 75.3382 74.7046 75.648 74.7284L75.6786 74.3295C76.2349 74.3722 76.7737 74.4515 77.2893 74.5642L77.204 74.955C77.8428 75.0945 78.4422 75.2866 78.9905 75.5233L79.149 75.1561C79.6686 75.3804 80.1464 75.644 80.5733 75.9414L80.3446 76.2696C80.878 76.6413 81.3198 77.064 81.6551 77.5231L81.9782 77.2872C82.3076 77.7384 82.5469 78.2277 82.6802 78.7462L82.2928 78.8458C82.365 79.1262 82.4026 79.4158 82.4026 79.7134C82.4026 80.0137 82.3645 80.3095 82.2913 80.5988L82.679 80.697C82.5464 81.2208 82.31 81.7228 81.9853 82.1914L81.6565 81.9636C81.3241 82.4433 80.8874 82.8912 80.362 83.2901L80.6039 83.6087C80.1805 83.9301 79.7063 84.2187 79.1904 84.4675L79.0166 84.1072C78.4671 84.3723 77.8661 84.5911 77.2259 84.7537L77.3244 85.1414C76.8029 85.2739 76.2574 85.3702 75.6941 85.4256L75.6549 85.0276C75.3423 85.0584 75.0238 85.0761 74.7006 85.08C74.3777 85.0776 74.0594 85.0613 73.7471 85.0321L73.7097 85.4303C73.1465 85.3775 72.6012 85.2839 72.0799 85.1539L72.1766 84.7658C71.536 84.6062 70.935 84.39 70.3855 84.1274L70.213 84.4883C69.6966 84.2415 69.222 83.9546 68.7984 83.6346L69.0396 83.3155C68.514 82.9184 68.0774 82.4718 67.7452 81.9929L67.4165 82.2208C67.0921 81.7531 66.8561 81.2517 66.7237 80.7279L67.1115 80.6299C67.0385 80.341 67.0006 80.0455 67.0006 79.7452C67.0006 79.4469 67.0381 79.1566 67.11 78.8758L66.7225 78.7765C66.8556 78.2569 67.0944 77.7665 67.4232 77.3143L67.7467 77.5495C68.0818 77.0887 68.5234 76.6643 69.0564 76.2908L68.8268 75.9633C69.2536 75.6642 69.7314 75.3989 70.2509 75.1728L70.4105 75.5396C70.9592 75.3007 71.5589 75.1064 72.1979 74.9645L72.1112 74.574Z" stroke="url(#paint41_linear_4535_33691)" stroke-width="0.8" stroke-dasharray="2.31 1.93"/>
<path d="M71.9983 85.384C72.537 85.2664 73.0997 85.1829 73.6803 85.137L73.7118 85.5358C74.0361 85.5101 74.3663 85.4966 74.7014 85.4957C75.036 85.4953 75.3658 85.5076 75.6896 85.532L75.7197 85.1332C76.2999 85.1769 76.8622 85.2583 77.4003 85.3738L77.3163 85.7649C77.9848 85.9084 78.6124 86.1061 79.1869 86.3497L79.3431 85.9815C79.8869 86.2121 80.3874 86.4832 80.8348 86.7892L80.6089 87.1194C81.1714 87.5041 81.6379 87.942 81.9924 88.418L82.3132 88.1791C82.6621 88.6474 82.9156 89.1558 83.0572 89.6947L82.6703 89.7963C82.7473 90.0893 82.7874 90.392 82.7874 90.7031C82.7874 91.0168 82.7468 91.3259 82.6687 91.6281L83.056 91.7282C82.9153 92.2727 82.6649 92.7942 82.3211 93.2808L81.9944 93.05C81.643 93.5474 81.182 94.0115 80.628 94.4246L80.8671 94.7453C80.4232 95.0762 79.9264 95.3732 79.3862 95.6292L79.2149 95.2677C78.639 95.5406 78.0097 95.7658 77.3396 95.9331L77.4364 96.3212C76.8922 96.4571 76.3232 96.5558 75.7357 96.6127L75.6971 96.2146C75.3703 96.2462 75.0374 96.2645 74.6997 96.2685C74.3622 96.2661 74.0296 96.2493 73.703 96.2192L73.6663 96.6175C73.0788 96.5634 72.5099 96.4674 71.9659 96.3341L72.0611 95.9456C71.3906 95.7813 70.7612 95.5589 70.1853 95.2886L70.0153 95.6506C69.4746 95.3968 68.9774 95.1015 68.5333 94.7721L68.7716 94.4508C68.2174 94.0397 67.7565 93.5769 67.4053 93.0803L67.0787 93.3112C66.7352 92.8256 66.4852 92.3046 66.3448 91.7602L66.7321 91.6603C66.6543 91.3585 66.6139 91.0497 66.6139 90.736C66.6139 90.4241 66.6539 90.1208 66.7306 89.8273L66.3436 89.7261C66.4849 89.186 66.7379 88.6766 67.0861 88.2071L67.4074 88.4454C67.7617 87.9676 68.2279 87.5279 68.79 87.1413L68.5633 86.8118C69.0106 86.504 69.511 86.2312 70.0547 85.9987L70.212 86.3665C70.787 86.1206 71.4149 85.9207 72.0836 85.7748L71.9983 85.384Z" stroke="url(#paint42_linear_4535_33691)" stroke-width="0.8" stroke-dasharray="2.31 1.93"/>
<path d="M71.1631 96.5853C71.8535 96.4615 72.5936 96.3731 73.3685 96.325L73.3932 96.7243C73.8191 96.6979 74.2559 96.6839 74.7011 96.6832C75.146 96.6829 75.5825 96.6959 76.008 96.7214L76.0319 96.3221C76.8066 96.3684 77.5463 96.4553 78.2362 96.5775L78.1664 96.9714C79.1105 97.1387 79.9506 97.3724 80.6491 97.6556L80.7994 97.2849C81.6107 97.6138 82.2507 98.0111 82.6631 98.4576L82.3692 98.729C82.6593 99.043 82.7874 99.3507 82.7874 99.6476C82.7874 99.9459 82.6593 100.263 82.3698 100.59L82.6696 100.855C82.2617 101.317 81.6282 101.737 80.8248 102.092L80.6634 101.726C79.9658 102.033 79.1256 102.293 78.1814 102.482L78.2602 102.875C77.5665 103.014 76.8222 103.116 76.0427 103.173L76.0133 102.774C75.5857 102.806 75.1471 102.824 74.7 102.827C74.2531 102.825 73.8146 102.808 73.3873 102.778L73.359 103.177C72.5793 103.122 71.8351 103.022 71.1417 102.884L71.2194 102.492C70.2748 102.305 69.4346 102.048 68.7371 101.742L68.5764 102.108C67.7724 101.755 67.1388 101.336 66.731 100.874L67.0308 100.61C66.7418 100.283 66.6139 99.9661 66.6139 99.6674C66.6139 99.3691 66.7419 99.0606 67.0311 98.7461L66.7367 98.4753C67.1487 98.0273 67.7885 97.6286 68.5993 97.2981L68.7503 97.6685C69.449 97.3836 70.2895 97.1482 71.2336 96.979L71.1631 96.5853Z" stroke="url(#paint43_linear_4535_33691)" stroke-width="0.8" stroke-dasharray="2.31 1.93"/>
<path d="M86.1139 80.0611C86.5933 79.8185 87.1037 79.6019 87.6402 79.4161L87.7711 79.794C88.0705 79.6903 88.3784 79.5964 88.694 79.5132C89.0094 79.4306 89.3232 79.361 89.6344 79.3042L89.5625 78.9107C90.1205 78.8088 90.6707 78.7466 91.2065 78.7223L91.2246 79.1219C91.8901 79.0917 92.5302 79.1222 93.1316 79.2087L93.1886 78.8128C93.7587 78.8949 94.2977 79.0255 94.7954 79.202L94.6618 79.579C95.2876 79.8009 95.8357 80.0963 96.2872 80.4548L96.5359 80.1415C96.9822 80.4958 97.3479 80.9115 97.6148 81.3838L97.2666 81.5806C97.4114 81.8367 97.5235 82.111 97.5998 82.4032C97.6766 82.6979 97.7139 82.9981 97.7139 83.3014L98.1139 83.3014C98.1139 83.8489 98.0042 84.4019 97.7973 84.945L97.4235 84.8025C97.2128 85.3554 96.8905 85.9043 96.4677 86.4282L96.779 86.6794C96.4403 87.0991 96.0434 87.5 95.5957 87.873L95.3397 87.5657C94.863 87.9627 94.3245 88.3283 93.7334 88.6497L93.9245 89.0011C93.4442 89.2622 92.9316 89.4946 92.3914 89.6924L92.2539 89.3168C91.9536 89.4268 91.6444 89.5257 91.3271 89.6125C91.0084 89.6932 90.6909 89.7593 90.3759 89.8114L90.4412 90.2061C89.8739 90.2999 89.3139 90.3501 88.7682 90.3593L88.7614 89.9593C88.0891 89.9706 87.4412 89.9174 86.832 89.8062L86.7601 90.1996C86.1872 90.095 85.6452 89.9409 85.1448 89.7416L85.2928 89.37C84.6682 89.1212 84.1193 88.801 83.6657 88.4223L83.4093 88.7293C82.964 88.3573 82.5985 87.9288 82.3313 87.451L82.6804 87.2558C82.5326 86.9916 82.4187 86.7116 82.3418 86.417C82.2654 86.1241 82.229 85.8293 82.2299 85.5347L81.8299 85.5335C81.8315 84.99 81.9468 84.4476 82.1621 83.9196L82.5325 84.0707C82.7507 83.5357 83.0839 83.0086 83.5207 82.5076L83.2192 82.2447C83.5669 81.846 83.9729 81.467 84.4297 81.1152L84.6738 81.4321C85.1561 81.0606 85.6995 80.7191 86.2945 80.418L86.1139 80.0611Z" stroke="url(#paint44_linear_4535_33691)" stroke-width="0.8" stroke-dasharray="2.31 1.93"/>
<path d="M63.348 80.0611C62.8686 79.8185 62.3582 79.6019 61.8218 79.4161L61.6908 79.794C61.3914 79.6903 61.0835 79.5964 60.7679 79.5132C60.4526 79.4306 60.1387 79.361 59.8275 79.3042L59.8994 78.9107C59.3414 78.8088 58.7912 78.7466 58.2554 78.7223L58.2373 79.1219C57.5718 79.0917 56.9317 79.1222 56.3303 79.2087L56.2733 78.8128C55.7033 78.8949 55.1642 79.0255 54.6665 79.202L54.8001 79.579C54.1743 79.8009 53.6263 80.0963 53.1747 80.4548L52.926 80.1415C52.4797 80.4958 52.114 80.9115 51.8471 81.3838L52.1953 81.5806C52.0506 81.8367 51.9384 82.111 51.8621 82.4032C51.7853 82.6979 51.748 82.9981 51.748 83.3014L51.348 83.3014C51.348 83.8489 51.4577 84.4019 51.6647 84.945L52.0384 84.8025C52.2491 85.3554 52.5714 85.9043 52.9942 86.4282L52.6829 86.6794C53.0216 87.0991 53.4185 87.5 53.8662 87.873L54.1223 87.5657C54.5989 87.9627 55.1374 88.3283 55.7285 88.6497L55.5375 89.0011C56.0177 89.2622 56.5303 89.4946 57.0705 89.6924L57.208 89.3168C57.5083 89.4268 57.8175 89.5257 58.1348 89.6125C58.4535 89.6932 58.771 89.7593 59.086 89.8114L59.0207 90.2061C59.588 90.2999 60.148 90.3501 60.6938 90.3593L60.7005 89.9593C61.3728 89.9706 62.0207 89.9174 62.6299 89.8062L62.7018 90.1996C63.2747 90.095 63.8167 89.9409 64.3171 89.7416L64.1691 89.37C64.7937 89.1212 65.3427 88.801 65.7962 88.4223L66.0526 88.7293C66.4979 88.3573 66.8634 87.9288 67.1306 87.451L66.7815 87.2558C66.9293 86.9916 67.0432 86.7116 67.1201 86.417C67.1965 86.1241 67.2329 85.8293 67.232 85.5347L67.632 85.5335C67.6304 84.99 67.5151 84.4476 67.2998 83.9196L66.9294 84.0707C66.7112 83.5357 66.378 83.0086 65.9412 82.5076L66.2427 82.2447C65.8951 81.846 65.489 81.467 65.0322 81.1152L64.7881 81.4321C64.3058 81.0606 63.7624 80.7191 63.1674 80.418L63.348 80.0611Z" stroke="url(#paint45_linear_4535_33691)" stroke-width="0.8" stroke-dasharray="2.31 1.93"/>
<path d="M87.691 90.7875C88.2067 90.6363 88.748 90.5163 89.3093 90.4313L89.3692 90.8268C89.6824 90.7794 90.0023 90.7432 90.3278 90.7189C90.6529 90.695 90.9742 90.6838 91.2905 90.6847L91.2916 90.2847C91.8588 90.2862 92.411 90.3253 92.9423 90.399L92.8874 90.7952C93.5472 90.8868 94.171 91.0333 94.7466 91.228L94.8747 90.8491C95.4203 91.0337 95.9266 91.2603 96.3838 91.5245L96.1837 91.8709C96.7586 92.2031 97.2436 92.5934 97.6223 93.0282L97.924 92.7655C98.2982 93.1951 98.5821 93.6706 98.7585 94.1836L98.3802 94.3136C98.4759 94.5918 98.5362 94.882 98.5579 95.1832C98.5798 95.4869 98.5618 95.7889 98.5065 96.0871L98.8998 96.16C98.8001 96.6983 98.5914 97.2221 98.289 97.7183L97.9474 97.5102C97.6395 98.0155 97.2226 98.4964 96.7114 98.9345L96.9717 99.2382C96.5623 99.5892 96.099 99.911 95.5907 100.196L95.395 99.8474C94.854 100.151 94.2579 100.412 93.6181 100.621L93.7419 101.001C93.2222 101.17 92.6758 101.305 92.1086 101.401L92.0418 101.007C91.7265 101.06 91.4045 101.101 91.0767 101.129C90.7486 101.15 90.4244 101.157 90.1051 101.151L90.0974 101.551C89.5225 101.54 88.9628 101.487 88.4245 101.397L88.4908 101.002C87.8276 100.891 87.2003 100.721 86.6215 100.5L86.4792 100.874C85.9349 100.667 85.43 100.416 84.9743 100.129L85.1876 99.7909C84.6187 99.4325 84.1373 99.0177 83.7604 98.5626L83.4524 98.8177C83.0822 98.3709 82.801 97.8829 82.6253 97.3645L83.0041 97.2361C82.907 96.9494 82.8459 96.6533 82.8241 96.3496C82.8023 96.0477 82.8202 95.7513 82.8747 95.4617L82.4817 95.3877C82.5822 94.8535 82.7944 94.3413 83.1024 93.8614L83.4391 94.0774C83.7511 93.5911 84.1747 93.1336 84.6955 92.7205L84.447 92.4071C84.8614 92.0784 85.3298 91.7798 85.843 91.5171L86.0252 91.8731C86.5672 91.5957 87.1637 91.3589 87.8036 91.1713L87.691 90.7875Z" stroke="url(#paint46_linear_4535_33691)" stroke-width="0.8" stroke-dasharray="2.31 1.93"/>
<path d="M61.7709 90.7875C61.2553 90.6363 60.7139 90.5163 60.1526 90.4313L60.0927 90.8268C59.7795 90.7794 59.4596 90.7432 59.1341 90.7189C58.809 90.695 58.4877 90.6838 58.1714 90.6847L58.1703 90.2847C57.6032 90.2862 57.0509 90.3253 56.5196 90.399L56.5746 90.7952C55.9148 90.8868 55.2909 91.0333 54.7153 91.228L54.5872 90.8491C54.0416 91.0337 53.5353 91.2603 53.0781 91.5245L53.2782 91.8709C52.7033 92.2031 52.2183 92.5934 51.8396 93.0282L51.538 92.7655C51.1637 93.1951 50.8798 93.6706 50.7034 94.1836L51.0817 94.3136C50.986 94.5918 50.9257 94.882 50.904 95.1832C50.8821 95.4869 50.9001 95.7889 50.9554 96.0871L50.5621 96.16C50.6619 96.6983 50.8705 97.2221 51.173 97.7183L51.5145 97.5102C51.8224 98.0155 52.2393 98.4964 52.7505 98.9345L52.4902 99.2382C52.8997 99.5892 53.3629 99.911 53.8712 100.196L54.0669 99.8474C54.6079 100.151 55.204 100.412 55.8438 100.621L55.72 101.001C56.2397 101.17 56.7861 101.305 57.3533 101.401L57.4201 101.007C57.7354 101.06 58.0574 101.101 58.3852 101.129C58.7133 101.15 59.0375 101.157 59.3568 101.151L59.3645 101.551C59.9394 101.54 60.4992 101.487 61.0374 101.397L60.9712 101.002C61.6343 100.891 62.2617 100.721 62.8404 100.5L62.9827 100.874C63.527 100.667 64.0319 100.416 64.4876 100.129L64.2744 99.7909C64.8432 99.4325 65.3246 99.0177 65.7015 98.5626L66.0096 98.8177C66.3797 98.3709 66.661 97.8829 66.8366 97.3645L66.4578 97.2361C66.5549 96.9494 66.616 96.6533 66.6379 96.3496C66.6596 96.0477 66.6417 95.7513 66.5872 95.4617L66.9803 95.3877C66.8797 94.8535 66.6675 94.3413 66.3595 93.8614L66.0229 94.0774C65.7108 93.5911 65.2872 93.1336 64.7664 92.7205L65.015 92.4071C64.6005 92.0784 64.1321 91.7798 63.6189 91.5171L63.4367 91.8731C62.8947 91.5957 62.2982 91.3589 61.6583 91.1713L61.7709 90.7875Z" stroke="url(#paint47_linear_4535_33691)" stroke-width="0.8" stroke-dasharray="2.31 1.93"/>
<path d="M74.7019 54.6344C75.6107 54.6335 76.4107 54.8252 76.9688 55.1225C77.5397 55.4267 77.7732 55.7874 77.7732 56.1035C77.7732 56.4289 77.5299 56.8146 76.9564 57.1444C76.3976 57.4658 75.6006 57.683 74.7006 57.692C73.7994 57.6864 73.0026 57.4718 72.4446 57.1524C71.8721 56.8247 71.6295 56.4402 71.6295 56.1145C71.6295 55.7958 71.8643 55.4337 72.4357 55.1282C72.9944 54.8295 73.7947 54.6362 74.7019 54.6344Z" stroke="url(#paint48_linear_4535_33691)" stroke-width="0.8"/>
<path d="M97.4629 32.2461V81.6235" stroke="url(#paint49_linear_4535_33691)" stroke-width="0.8"/>
<path d="M51.9424 32.2461V81.6235" stroke="url(#paint50_linear_4535_33691)" stroke-width="0.8"/>
<defs>
<linearGradient id="paint0_linear_4535_33691" x1="108.65" y1="7.94336" x2="95.9514" y2="8.82859" gradientUnits="userSpaceOnUse">
<stop stop-color="#DBFAFF"/>
<stop offset="0.520833" stop-color="#EADDFF"/>
<stop offset="1" stop-color="#FFE7E2"/>
</linearGradient>
<linearGradient id="paint1_linear_4535_33691" x1="108.65" y1="35.7188" x2="95.9514" y2="36.604" gradientUnits="userSpaceOnUse">
<stop stop-color="#DBFAFF"/>
<stop offset="0.520833" stop-color="#EADDFF"/>
<stop offset="1" stop-color="#FFE7E2"/>
</linearGradient>
<linearGradient id="paint2_linear_4535_33691" x1="108.65" y1="63.4941" x2="95.9514" y2="64.3794" gradientUnits="userSpaceOnUse">
<stop stop-color="#DBFAFF"/>
<stop offset="0.520833" stop-color="#EADDFF"/>
<stop offset="1" stop-color="#FFE7E2"/>
</linearGradient>
<linearGradient id="paint3_linear_4535_33691" x1="108.65" y1="49.6055" x2="95.9514" y2="50.4907" gradientUnits="userSpaceOnUse">
<stop stop-color="#DBFAFF"/>
<stop offset="0.520833" stop-color="#EADDFF"/>
<stop offset="1" stop-color="#FFE7E2"/>
</linearGradient>
<linearGradient id="paint4_linear_4535_33691" x1="108.65" y1="21.8301" x2="95.9514" y2="22.7153" gradientUnits="userSpaceOnUse">
<stop stop-color="#DBFAFF"/>
<stop offset="0.520833" stop-color="#EADDFF"/>
<stop offset="1" stop-color="#FFE7E2"/>
</linearGradient>
<linearGradient id="paint5_linear_4535_33691" x1="108.65" y1="42.6621" x2="95.9514" y2="43.5473" gradientUnits="userSpaceOnUse">
<stop stop-color="#DBFAFF"/>
<stop offset="0.520833" stop-color="#EADDFF"/>
<stop offset="1" stop-color="#FFE7E2"/>
</linearGradient>
<linearGradient id="paint6_linear_4535_33691" x1="108.649" y1="77.3809" x2="95.9509" y2="78.2661" gradientUnits="userSpaceOnUse">
<stop stop-color="#DBFAFF"/>
<stop offset="0.520833" stop-color="#EADDFF"/>
<stop offset="1" stop-color="#FFE7E2"/>
</linearGradient>
<linearGradient id="paint7_linear_4535_33691" x1="108.65" y1="56.5488" x2="95.9514" y2="57.4341" gradientUnits="userSpaceOnUse">
<stop stop-color="#DBFAFF"/>
<stop offset="0.520833" stop-color="#EADDFF"/>
<stop offset="1" stop-color="#FFE7E2"/>
</linearGradient>
<linearGradient id="paint8_linear_4535_33691" x1="108.65" y1="14.8867" x2="95.9514" y2="15.772" gradientUnits="userSpaceOnUse">
<stop stop-color="#DBFAFF"/>
<stop offset="0.520833" stop-color="#EADDFF"/>
<stop offset="1" stop-color="#FFE7E2"/>
</linearGradient>
<linearGradient id="paint9_linear_4535_33691" x1="108.651" y1="70.4375" x2="95.9522" y2="71.3227" gradientUnits="userSpaceOnUse">
<stop stop-color="#DBFAFF"/>
<stop offset="0.520833" stop-color="#EADDFF"/>
<stop offset="1" stop-color="#FFE7E2"/>
</linearGradient>
<linearGradient id="paint10_linear_4535_33691" x1="108.65" y1="28.7754" x2="95.9514" y2="29.6606" gradientUnits="userSpaceOnUse">
<stop stop-color="#DBFAFF"/>
<stop offset="0.520833" stop-color="#EADDFF"/>
<stop offset="1" stop-color="#FFE7E2"/>
</linearGradient>
<linearGradient id="paint11_linear_4535_33691" x1="108.649" y1="84.3242" x2="95.9507" y2="85.2095" gradientUnits="userSpaceOnUse">
<stop stop-color="#DBFAFF"/>
<stop offset="0.520833" stop-color="#EADDFF"/>
<stop offset="1" stop-color="#FFE7E2"/>
</linearGradient>
<linearGradient id="paint12_linear_4535_33691" x1="108.65" y1="91.2676" x2="95.9512" y2="92.1528" gradientUnits="userSpaceOnUse">
<stop stop-color="#DBFAFF"/>
<stop offset="0.520833" stop-color="#EADDFF"/>
<stop offset="1" stop-color="#FFE7E2"/>
</linearGradient>
<linearGradient id="paint13_linear_4535_33691" x1="40.7543" y1="7.94336" x2="53.4529" y2="8.82859" gradientUnits="userSpaceOnUse">
<stop stop-color="#FFE7E2"/>
<stop offset="0.520833" stop-color="#EADDFF"/>
<stop offset="1" stop-color="#DBFAFF"/>
</linearGradient>
<linearGradient id="paint14_linear_4535_33691" x1="40.7543" y1="35.7188" x2="53.4529" y2="36.604" gradientUnits="userSpaceOnUse">
<stop stop-color="#FFE7E2"/>
<stop offset="0.520833" stop-color="#EADDFF"/>
<stop offset="1" stop-color="#DBFAFF"/>
</linearGradient>
<linearGradient id="paint15_linear_4535_33691" x1="40.7543" y1="63.4941" x2="53.4529" y2="64.3794" gradientUnits="userSpaceOnUse">
<stop stop-color="#FFE7E2"/>
<stop offset="0.520833" stop-color="#EADDFF"/>
<stop offset="1" stop-color="#DBFAFF"/>
</linearGradient>
<linearGradient id="paint16_linear_4535_33691" x1="40.7543" y1="49.6055" x2="53.4529" y2="50.4907" gradientUnits="userSpaceOnUse">
<stop stop-color="#FFE7E2"/>
<stop offset="0.520833" stop-color="#EADDFF"/>
<stop offset="1" stop-color="#DBFAFF"/>
</linearGradient>
<linearGradient id="paint17_linear_4535_33691" x1="40.7543" y1="21.8301" x2="53.4529" y2="22.7153" gradientUnits="userSpaceOnUse">
<stop stop-color="#FFE7E2"/>
<stop offset="0.520833" stop-color="#EADDFF"/>
<stop offset="1" stop-color="#DBFAFF"/>
</linearGradient>
<linearGradient id="paint18_linear_4535_33691" x1="40.7543" y1="42.6621" x2="53.4529" y2="43.5473" gradientUnits="userSpaceOnUse">
<stop stop-color="#FFE7E2"/>
<stop offset="0.520833" stop-color="#EADDFF"/>
<stop offset="1" stop-color="#DBFAFF"/>
</linearGradient>
<linearGradient id="paint19_linear_4535_33691" x1="40.7547" y1="77.3809" x2="51.4996" y2="78.1299" gradientUnits="userSpaceOnUse">
<stop stop-color="#FFE7E2"/>
<stop offset="0.520833" stop-color="#EADDFF"/>
<stop offset="1" stop-color="#DBFAFF"/>
</linearGradient>
<linearGradient id="paint20_linear_4535_33691" x1="40.7543" y1="56.5488" x2="53.4529" y2="57.4341" gradientUnits="userSpaceOnUse">
<stop stop-color="#FFE7E2"/>
<stop offset="0.520833" stop-color="#EADDFF"/>
<stop offset="1" stop-color="#DBFAFF"/>
</linearGradient>
<linearGradient id="paint21_linear_4535_33691" x1="40.7543" y1="14.8867" x2="53.4529" y2="15.772" gradientUnits="userSpaceOnUse">
<stop stop-color="#FFE7E2"/>
<stop offset="0.520833" stop-color="#EADDFF"/>
<stop offset="1" stop-color="#DBFAFF"/>
</linearGradient>
<linearGradient id="paint22_linear_4535_33691" x1="40.7537" y1="70.4375" x2="53.29" y2="71.3114" gradientUnits="userSpaceOnUse">
<stop stop-color="#FFE7E2"/>
<stop offset="0.520833" stop-color="#EADDFF"/>
<stop offset="1" stop-color="#DBFAFF"/>
</linearGradient>
<linearGradient id="paint23_linear_4535_33691" x1="40.7543" y1="28.7754" x2="53.4529" y2="29.6606" gradientUnits="userSpaceOnUse">
<stop stop-color="#FFE7E2"/>
<stop offset="0.520833" stop-color="#EADDFF"/>
<stop offset="1" stop-color="#DBFAFF"/>
</linearGradient>
<linearGradient id="paint24_linear_4535_33691" x1="40.7549" y1="84.3242" x2="51.4087" y2="85.0669" gradientUnits="userSpaceOnUse">
<stop stop-color="#FFE7E2"/>
<stop offset="0.520833" stop-color="#EADDFF"/>
<stop offset="1" stop-color="#DBFAFF"/>
</linearGradient>
<linearGradient id="paint25_linear_4535_33691" x1="40.7544" y1="91.2676" x2="47.4836" y2="91.7367" gradientUnits="userSpaceOnUse">
<stop stop-color="#FFE7E2"/>
<stop offset="0.520833" stop-color="#EADDFF"/>
<stop offset="1" stop-color="#DBFAFF"/>
</linearGradient>
<linearGradient id="paint26_linear_4535_33691" x1="132.18" y1="134.088" x2="35.5008" y2="192.161" gradientUnits="userSpaceOnUse">
<stop stop-color="#DBFAFF"/>
<stop offset="0.520833" stop-color="#EADDFF"/>
<stop offset="1" stop-color="#FFE7E2"/>
</linearGradient>
<linearGradient id="paint27_linear_4535_33691" x1="137.196" y1="117.691" x2="44.0176" y2="185.828" gradientUnits="userSpaceOnUse">
<stop stop-color="#DBFAFF"/>
<stop offset="0.520833" stop-color="#EADDFF"/>
<stop offset="1" stop-color="#FFE7E2"/>
</linearGradient>
<linearGradient id="paint28_linear_4535_33691" x1="137.196" y1="120.393" x2="105.333" y2="179.901" gradientUnits="userSpaceOnUse">
<stop stop-color="#DBFAFF"/>
<stop offset="0.520833" stop-color="#EADDFF"/>
<stop offset="1" stop-color="#FFE7E2"/>
</linearGradient>
<linearGradient id="paint29_linear_4535_33691" x1="117.136" y1="118.85" x2="55.4935" y2="165.258" gradientUnits="userSpaceOnUse">
<stop stop-color="#DBFAFF"/>
<stop offset="0.520833" stop-color="#EADDFF"/>
<stop offset="1" stop-color="#FFE7E2"/>
</linearGradient>
<linearGradient id="paint30_linear_4535_33691" x1="74.7024" y1="1" x2="-8.50978" y2="8.12197" gradientUnits="userSpaceOnUse">
<stop stop-color="#DBFAFF"/>
<stop offset="0.520833" stop-color="#EADDFF"/>
<stop offset="1" stop-color="#FFE7E2"/>
</linearGradient>
<linearGradient id="paint31_linear_4535_33691" x1="74.7019" y1="1" x2="157.914" y2="8.12197" gradientUnits="userSpaceOnUse">
<stop stop-color="#FFE7E2"/>
<stop offset="0.520833" stop-color="#EADDFF"/>
<stop offset="1" stop-color="#DBFAFF"/>
</linearGradient>
<linearGradient id="paint32_linear_4535_33691" x1="18.3815" y1="20.8652" x2="4.30619" y2="21.1308" gradientUnits="userSpaceOnUse">
<stop stop-color="#DBFAFF"/>
<stop offset="0.520833" stop-color="#EADDFF"/>
<stop offset="1" stop-color="#FFE7E2"/>
</linearGradient>
<linearGradient id="paint33_linear_4535_33691" x1="18.3815" y1="20.8652" x2="4.30619" y2="21.1308" gradientUnits="userSpaceOnUse">
<stop stop-color="#DBFAFF"/>
<stop offset="0.520833" stop-color="#EADDFF"/>
<stop offset="1" stop-color="#FFE7E2"/>
</linearGradient>
<linearGradient id="paint34_linear_4535_33691" x1="18.3815" y1="20.8652" x2="4.30619" y2="21.1308" gradientUnits="userSpaceOnUse">
<stop stop-color="#DBFAFF"/>
<stop offset="0.520833" stop-color="#EADDFF"/>
<stop offset="1" stop-color="#FFE7E2"/>
</linearGradient>
<linearGradient id="paint35_linear_4535_33691" x1="18.3815" y1="20.8652" x2="4.30619" y2="21.1308" gradientUnits="userSpaceOnUse">
<stop stop-color="#DBFAFF"/>
<stop offset="0.520833" stop-color="#EADDFF"/>
<stop offset="1" stop-color="#FFE7E2"/>
</linearGradient>
<linearGradient id="paint36_linear_4535_33691" x1="131.024" y1="20.8652" x2="145.099" y2="21.1308" gradientUnits="userSpaceOnUse">
<stop stop-color="#FFE7E2"/>
<stop offset="0.520833" stop-color="#EADDFF"/>
<stop offset="1" stop-color="#DBFAFF"/>
</linearGradient>
<linearGradient id="paint37_linear_4535_33691" x1="131.024" y1="20.8652" x2="145.099" y2="21.1308" gradientUnits="userSpaceOnUse">
<stop stop-color="#FFE7E2"/>
<stop offset="0.520833" stop-color="#EADDFF"/>
<stop offset="1" stop-color="#DBFAFF"/>
</linearGradient>
<linearGradient id="paint38_linear_4535_33691" x1="131.024" y1="20.8652" x2="145.099" y2="21.1308" gradientUnits="userSpaceOnUse">
<stop stop-color="#FFE7E2"/>
<stop offset="0.520833" stop-color="#EADDFF"/>
<stop offset="1" stop-color="#DBFAFF"/>
</linearGradient>
<linearGradient id="paint39_linear_4535_33691" x1="131.024" y1="20.8652" x2="145.099" y2="21.1308" gradientUnits="userSpaceOnUse">
<stop stop-color="#FFE7E2"/>
<stop offset="0.520833" stop-color="#EADDFF"/>
<stop offset="1" stop-color="#DBFAFF"/>
</linearGradient>
<linearGradient id="paint40_linear_4535_33691" x1="108.649" y1="103.227" x2="53.8527" y2="138.453" gradientUnits="userSpaceOnUse">
<stop stop-color="#DBFAFF"/>
<stop offset="0.520833" stop-color="#EADDFF"/>
<stop offset="1" stop-color="#FFE7E2"/>
</linearGradient>
<linearGradient id="paint41_linear_4535_33691" x1="82.8026" y1="74.293" x2="65.0582" y2="77.9069" gradientUnits="userSpaceOnUse">
<stop stop-color="#DBF8FF"/>
<stop offset="0.53125" stop-color="#DDE4FF"/>
<stop offset="1" stop-color="#FEE2FF"/>
</linearGradient>
<linearGradient id="paint42_linear_4535_33691" x1="83.1874" y1="85.0957" x2="64.6169" y2="88.9259" gradientUnits="userSpaceOnUse">
<stop stop-color="#DBF8FF"/>
<stop offset="0.53125" stop-color="#DDE4FF"/>
<stop offset="1" stop-color="#FEE2FF"/>
</linearGradient>
<linearGradient id="paint43_linear_4535_33691" x1="83.1874" y1="96.2832" x2="65.8729" y2="102.235" gradientUnits="userSpaceOnUse">
<stop stop-color="#DBF8FF"/>
<stop offset="0.53125" stop-color="#DDE4FF"/>
<stop offset="1" stop-color="#FEE2FF"/>
</linearGradient>
<linearGradient id="paint44_linear_4535_33691" x1="96.6124" y1="77.034" x2="80.0209" y2="85.2492" gradientUnits="userSpaceOnUse">
<stop stop-color="#DBF8FF"/>
<stop offset="0.53125" stop-color="#DDE4FF"/>
<stop offset="1" stop-color="#FEE2FF"/>
</linearGradient>
<linearGradient id="paint45_linear_4535_33691" x1="52.8495" y1="77.034" x2="69.441" y2="85.2492" gradientUnits="userSpaceOnUse">
<stop stop-color="#DBF8FF"/>
<stop offset="0.53125" stop-color="#DDE4FF"/>
<stop offset="1" stop-color="#FEE2FF"/>
</linearGradient>
<linearGradient id="paint46_linear_4535_33691" x1="98.5653" y1="89.7239" x2="80.7547" y2="94.7785" gradientUnits="userSpaceOnUse">
<stop stop-color="#DBF8FF"/>
<stop offset="0.53125" stop-color="#DDE4FF"/>
<stop offset="1" stop-color="#FEE2FF"/>
</linearGradient>
<linearGradient id="paint47_linear_4535_33691" x1="50.8966" y1="89.7239" x2="68.7072" y2="94.7785" gradientUnits="userSpaceOnUse">
<stop stop-color="#DBF8FF"/>
<stop offset="0.53125" stop-color="#DDE4FF"/>
<stop offset="1" stop-color="#FEE2FF"/>
</linearGradient>
<linearGradient id="paint48_linear_4535_33691" x1="78.1732" y1="54.2344" x2="70.7299" y2="56.1184" gradientUnits="userSpaceOnUse">
<stop stop-color="#DBF8FF"/>
<stop offset="0.53125" stop-color="#DDE4FF"/>
<stop offset="1" stop-color="#FEE2FF"/>
</linearGradient>
<linearGradient id="paint49_linear_4535_33691" x1="98.4629" y1="32.2461" x2="97.3223" y2="32.2493" gradientUnits="userSpaceOnUse">
<stop stop-color="#DBFAFF"/>
<stop offset="0.520833" stop-color="#EADDFF"/>
<stop offset="1" stop-color="#FFE7E2"/>
</linearGradient>
<linearGradient id="paint50_linear_4535_33691" x1="52.9424" y1="32.2461" x2="51.8018" y2="32.2493" gradientUnits="userSpaceOnUse">
<stop stop-color="#DBFAFF"/>
<stop offset="0.520833" stop-color="#EADDFF"/>
<stop offset="1" stop-color="#FFE7E2"/>
</linearGradient>
</defs>
</svg>
